<svg aria-hidden="true" style="position: absolute; width: 0; height: 0; overflow: hidden;" version="1.1" xmlns="http://www.w3.org/2000/svg" xmlns:xlink="http://www.w3.org/1999/xlink">
<defs>

<symbol id="icon-football" viewBox="0 0 32 32">
<path fill="#1e90ff" style="fill: var(--color1, #1e90ff)" d="M31.998 17.285c-0.037-1.758-0.608-3.43-1.653-4.833-0.53-0.713-1.17-1.336-1.903-1.852s-1.536-0.909-2.386-1.168c-1.674-0.51-3.441-0.484-5.108 0.074-1.703 0.57-3.152 1.65-4.189 3.123-0.123 0.174-0.239 0.354-0.347 0.533-0.809 1.354-1.217 2.904-1.181 4.481 0.043 1.877 0.721 3.704 1.91 5.144 0.475 0.576 1.029 1.089 1.646 1.524s1.286 0.783 1.989 1.036c0.91 0.328 1.871 0.492 2.834 0.492 0.897 0 1.795-0.142 2.654-0.428 1.497-0.497 2.819-1.404 3.821-2.622 0.133-0.162 0.263-0.333 0.385-0.506v0c1.037-1.473 1.565-3.201 1.528-4.997zM27.888 11.386c0.382 0.269 0.734 0.571 1.055 0.902-0.561-0.015-1.117-0.081-1.556-0.19-0.251-0.377-0.501-0.878-0.704-1.401 0.42 0.191 0.823 0.421 1.205 0.69zM21.531 10.331c0.685-0.201 1.387-0.301 2.089-0.301 0.64 0 1.279 0.084 1.906 0.251 0.234 0.793 0.596 1.615 0.983 2.229l-1.047 1.487c-1.121-0.25-2.732-0.279-3.827 0.046l-0.953-1.131c0.378-0.725 0.697-1.694 0.85-2.582zM26.539 18.341c-0.568 0.723-1.904 1.778-2.884 2.166-1.156-0.374-2.185-1.099-2.927-2.061 0.027-1.055 0.491-2.556 1.066-3.444 0.921-0.318 2.575-0.286 3.576-0.039 0.57 0.858 1.157 2.404 1.169 3.378zM20.464 10.733c-0.166 0.668-0.417 1.344-0.693 1.842-0.568 0.192-1.325 0.321-2.042 0.358 0.729-0.951 1.661-1.699 2.735-2.2zM17.34 21.422c-0.551-0.873-0.915-1.86-1.067-2.885 0.507 0.349 0.986 0.755 1.319 1.124-0.004 0.511-0.098 1.15-0.251 1.761zM16.193 17.348c0.016-1.207 0.326-2.388 0.905-3.446 0.074 0.002 0.149 0.004 0.225 0.004 0.878 0 1.86-0.14 2.621-0.376l0.939 1.115c-0.601 1.007-1.050 2.474-1.111 3.633l-1.568 0.63c-0.523-0.549-1.275-1.133-2.011-1.559zM19.342 23.523c-0.472-0.332-0.902-0.716-1.282-1.144 0.282-0.827 0.465-1.794 0.49-2.575l1.539-0.618c0.807 0.988 1.882 1.744 3.084 2.172l-0.064 1.657c-0.728 0.287-1.575 0.785-2.259 1.33-0.53-0.213-1.036-0.488-1.508-0.821zM21.995 24.699c0.523-0.351 1.093-0.654 1.573-0.83 0.459 0.189 1.003 0.504 1.503 0.863-1.017 0.202-2.068 0.191-3.076-0.033zM26.217 24.406c-0.649-0.55-1.452-1.061-2.146-1.368l0.065-1.691c1.072-0.463 2.359-1.474 3.041-2.27l1.371 0.511c0.037 0.865 0.269 1.936 0.609 2.805-0.802 0.901-1.809 1.591-2.939 2.013zM28.88 18.685l-1.386-0.516c-0.063-1.141-0.633-2.647-1.246-3.619l1.047-1.487c0.556 0.123 1.228 0.19 1.89 0.19 0.181 0 0.362-0.005 0.539-0.016 0.773 1.118 1.219 2.414 1.3 3.777-0.785 0.443-1.589 1.070-2.145 1.67zM29.856 21.472c-0.207-0.688-0.341-1.445-0.352-2.044 0.376-0.428 0.928-0.892 1.501-1.273-0.11 1.181-0.5 2.31-1.15 3.317z"></path>
<path fill="#1e90ff" style="fill: var(--color1, #1e90ff)" d="M15.671 9.522c0.061 0.025 0.124 0.037 0.185 0.037 0.188 0 0.367-0.111 0.444-0.295l3.484-8.326c0.103-0.245-0.013-0.527-0.258-0.629s-0.527 0.013-0.629 0.258l-1.501 3.587-7.707-1.871 0.316-1.426c0.057-0.259-0.106-0.516-0.366-0.574s-0.516 0.106-0.573 0.366l-2.54 11.471c-0.105-0.008-0.212 0.019-0.301 0.079l-3.674 2.45c-0.028 0.018-0.055 0.039-0.080 0.064l-0.736 0.736c-0.001 0.001-0.001 0.001-0.002 0.002l-1.592 1.592c-0.090 0.090-0.141 0.213-0.141 0.34s0.051 0.25 0.141 0.34l0.62 0.62-0.581 0.581c-0.188 0.188-0.188 0.492-0 0.68 0.094 0.094 0.217 0.141 0.34 0.141s0.246-0.047 0.34-0.141l0.581-0.581 1.879 1.879-0.581 0.581c-0.188 0.188-0.188 0.492 0 0.68 0.094 0.094 0.217 0.141 0.34 0.141s0.246-0.047 0.34-0.141l0.581-0.581 1.879 1.879-0.581 0.581c-0.188 0.188-0.188 0.492-0 0.68 0.094 0.094 0.217 0.141 0.34 0.141s0.246-0.047 0.34-0.141l0.581-0.581 1.879 1.879-0.581 0.581c-0.188 0.188-0.188 0.492 0 0.68 0.094 0.094 0.217 0.141 0.34 0.141s0.246-0.047 0.34-0.141l0.581-0.581 1.266 1.266c0.087 0.087 0.311 0.307 0.631 0.594l-0.599 0.599c-0.188 0.188-0.188 0.492 0 0.68 0.094 0.094 0.217 0.141 0.34 0.141s0.246-0.047 0.34-0.141l0.652-0.652c0.58 0.472 1.292 0.994 2.043 1.412l-0.251 0.385c-0.145 0.222-0.083 0.52 0.14 0.666 0.081 0.053 0.172 0.078 0.263 0.078 0.157 0 0.311-0.077 0.403-0.218l0.317-0.486c0.557 0.23 1.116 0.375 1.641 0.375 0.332-0 0.651-0.058 0.947-0.188 0.054-0.024 0.104-0.058 0.146-0.1l1.043-1.043c0.011-0.011 0.021-0.023 0.031-0.035 0.062-0.075 0.367-0.49 0.291-1.257-0.121-1.214-1.117-2.603-2.961-4.129l-0.234-0.74c-0.080-0.253-0.35-0.394-0.603-0.314s-0.394 0.35-0.314 0.604l0.277 0.877c0.028 0.089 0.082 0.169 0.155 0.228 2.138 1.743 2.646 2.903 2.718 3.54-1.429-0.064-3.604-1.611-5.141-3.148l-6.036-6.036c-0.188-0.188-0.492-0.188-0.68 0s-0.188 0.492 0 0.68l6.036 6.036c0.344 0.344 3.083 3.018 5.408 3.389l-0.599 0.599c-0.601 0.212-1.552-0.034-2.695-0.698-0.974-0.566-2.105-1.454-3.027-2.376l-9.904-9.904 0.914-0.914 2.829 2.829c0.094 0.094 0.217 0.141 0.34 0.141s0.246-0.047 0.34-0.141c0.188-0.188 0.188-0.492 0-0.68l-2.829-2.829 0.362-0.362 3.121-2.081c0.312 0.815 0.999 2.287 2.244 3.532 0.835 0.835 1.898 1.101 3.074 0.769 0.352-0.1 0.664-0.24 0.908-0.371l0.491 1.555-0.596 0.103c-0.262 0.045-0.437 0.294-0.392 0.556 0.040 0.234 0.244 0.399 0.473 0.399 0.027 0 0.055-0.002 0.082-0.007l0.725-0.125 0.075 0.238-0.571 0.106c-0.261 0.048-0.434 0.299-0.385 0.561 0.043 0.232 0.245 0.394 0.472 0.394 0.029 0 0.059-0.003 0.088-0.008l0.687-0.127 0.075 0.236-0.6 0.111c-0.261 0.048-0.434 0.299-0.386 0.561 0.043 0.232 0.245 0.394 0.472 0.394 0.029 0 0.059-0.003 0.088-0.008l0.716-0.133 0.26 0.822c0.080 0.253 0.35 0.394 0.603 0.314s0.394-0.35 0.314-0.603l-0.224-0.71c0.254-0.054 0.42-0.301 0.373-0.557-0.048-0.261-0.299-0.434-0.561-0.385l-0.104 0.019-0.074-0.236 0.016-0.003c0.261-0.048 0.434-0.299 0.385-0.561s-0.299-0.434-0.561-0.385l-0.133 0.025-0.071-0.226 0.098-0.017c0.262-0.045 0.437-0.294 0.392-0.556s-0.294-0.437-0.556-0.392l-0.227 0.039-0.665-2.106 2.439-5.828c0.103-0.245-0.013-0.527-0.258-0.629s-0.527 0.013-0.629 0.258l-2.455 5.867c-0.4 0.276-1.949 1.202-3.181-0.030-0.984-0.984-1.587-2.15-1.909-2.912l1.623-7.331c0.159 0.057 0.35 0.119 0.578 0.187 1.296 0.385 3.487 0.862 6.517 1.418l-0.559 1.335c-0.103 0.245 0.013 0.527 0.258 0.629zM9.086 5.006l0.395-1.784 7.539 1.83-0.668 1.597c-5.081-0.927-6.742-1.437-7.266-1.644z"></path>
</symbol>
<symbol id="icon-gym" viewBox="0 0 32 32">
<path fill="#1e90ff" style="fill: var(--color1, #1e90ff)" d="M29.438 12.982h-0.402v-1.21c0-1.511-1.229-2.74-2.741-2.74h-0.615c-0.307-1.053-1.281-1.825-2.433-1.825-1.397 0-2.534 1.137-2.534 2.534v4.013h-9.427v-4.013c0-1.397-1.137-2.534-2.534-2.534-1.152 0-2.125 0.772-2.433 1.825h-0.615c-1.511 0-2.74 1.229-2.74 2.74v1.21h-0.402c-1.075 0-1.949 0.875-1.949 1.949v2.131c0 1.075 0.874 1.949 1.949 1.949h0.402v1.217c0 1.511 1.229 2.74 2.74 2.74h0.615c0.307 1.053 1.281 1.825 2.433 1.825 1.397 0 2.534-1.137 2.534-2.534v-4.013h8.13c0.286 0 0.517-0.231 0.517-0.517s-0.231-0.517-0.517-0.517h-8.13v-2.426h9.427v7.473c0 1.397 1.137 2.534 2.534 2.534 1.152 0 2.125-0.772 2.433-1.825h0.615c1.511 0 2.741-1.229 2.741-2.74v-1.217h0.402c1.075 0 1.949-0.874 1.949-1.949v-2.131c0-1.075-0.875-1.95-1.949-1.95zM2.964 17.978h-0.402c-0.505 0-0.916-0.411-0.916-0.916v-2.131c0-0.505 0.411-0.916 0.916-0.916h0.402v3.962zM10.253 22.26c0 0.827-0.673 1.5-1.5 1.5s-1.5-0.673-1.5-1.5v-9.055c0-0.285-0.231-0.517-0.517-0.517s-0.517 0.231-0.517 0.517v8.73h-0.514c-0.941 0-1.707-0.766-1.707-1.707v-8.456c0-0.941 0.766-1.707 1.707-1.707h0.514v1.151c0 0.286 0.231 0.517 0.517 0.517s0.517-0.231 0.517-0.517v-1.476c0-0.827 0.673-1.5 1.5-1.5s1.5 0.673 1.5 1.5v12.52zM24.748 22.26c0 0.827-0.673 1.5-1.5 1.5s-1.5-0.673-1.5-1.5v-12.52c0-0.827 0.673-1.5 1.5-1.5s1.5 0.673 1.5 1.5v12.52zM28.002 20.228c0 0.941-0.766 1.707-1.707 1.707h-0.514v-11.87h0.514c0.941 0 1.707 0.766 1.707 1.707v8.456zM30.353 17.062c0 0.505-0.411 0.916-0.916 0.916h-0.402v-3.962h0.402c0.505 0 0.916 0.411 0.916 0.916v2.131z"></path>
</symbol>
<symbol id="icon-healthy-nutrition" viewBox="0 0 32 32">
<path fill="#1e90ff" style="fill: var(--color1, #1e90ff)" d="M25.314 10.133c0.468-0.001 0.927-0.125 1.332-0.358s0.742-0.57 0.977-0.974c0.047-0.081 0.072-0.173 0.072-0.267s-0.025-0.186-0.072-0.267c-0.234-0.405-0.571-0.742-0.976-0.976s-0.865-0.357-1.333-0.357c-0.468 0-0.928 0.123-1.333 0.357s-0.742 0.571-0.976 0.976c-0.047 0.081-0.072 0.173-0.072 0.267s0.025 0.186 0.072 0.267c0.235 0.405 0.572 0.74 0.977 0.974s0.864 0.357 1.332 0.358zM25.314 8c0.225 0.001 0.447 0.048 0.652 0.14s0.389 0.226 0.539 0.393c-0.15 0.168-0.334 0.302-0.539 0.394s-0.428 0.139-0.653 0.139c-0.225 0-0.447-0.047-0.653-0.139s-0.389-0.226-0.539-0.394c0.15-0.167 0.334-0.301 0.539-0.393s0.428-0.14 0.652-0.14z"></path>
<path fill="#1e90ff" style="fill: var(--color1, #1e90ff)" d="M28.778 27.385c-0.35-0.287-0.764-0.594-1.233-0.915 2.317-1.381 3.922-4.282 3.922-7.27 0-2.709-1.067-5.956-3.452-7.102-0.986-0.474-2.504-0.72-4.496 0.372-0.095-0.952-0.385-1.749-0.657-2.496-0.515-1.412-0.921-2.528 0.016-4.402l-0.954-0.477c-1.143 2.285-0.594 3.79-0.064 5.245 0.308 0.846 0.622 1.709 0.62 2.796-0.027 0.019-0.052 0.037-0.079 0.057-1.464-1.089-2.714-1.472-3.733-1.495v-3.164c-0.001-0.115-0.038-0.227-0.107-0.32l-3.093-4.124v-3.022c0-0.141-0.056-0.277-0.156-0.377s-0.236-0.156-0.377-0.156h-9.6c-0.141 0-0.277 0.056-0.377 0.156s-0.156 0.236-0.156 0.377v3.022l-3.093 4.124c-0.069 0.093-0.106 0.205-0.107 0.32v11.543c-0.478 0.29-0.825 0.752-0.97 1.292-0.225 0.777-0.17 1.907 1.374 2.876 0.358 0.22 0.735 0.408 1.127 0.563-1.581 0.859-1.77 1.913-1.764 2.391 0.012 0.977 0.775 1.827 1.944 2.166 0.174 0.050 0.354 0.074 0.534 0.073 0.961 0 2.147-0.65 3.537-1.94 0.418-0.388 0.8-0.783 1.119-1.131 0.056 0.474 0.225 0.927 0.492 1.323 0.648 0.959 1.883 1.646 4.132 2.298 2.161 0.626 6.245 1.22 9.711 1.412 0.807 0.045 1.566 0.067 2.264 0.067 0.846 0.007 1.692-0.036 2.533-0.13 1.638-0.202 2.498-0.633 2.708-1.357s-0.287-1.547-1.562-2.594zM22.34 14.395c-0.075 0.35-0.174 0.694-0.294 1.031-0.215-0.049-0.418-0.142-0.595-0.272s-0.326-0.297-0.437-0.487l-0.923 0.534c0.234 0.405 0.571 0.742 0.976 0.976s0.865 0.357 1.333 0.357c0.468 0 0.928-0.123 1.333-0.357s0.742-0.571 0.976-0.976l-0.923-0.534c-0.135 0.233-0.327 0.428-0.557 0.567 0.148-0.497 0.246-1.007 0.295-1.523 1.503-0.975 2.883-1.202 4.029-0.651 1.677 0.806 2.848 3.331 2.848 6.141 0 2.783-1.649 5.567-3.875 6.606-0.541-0.338-1.133-0.686-1.767-1.040-3.031-1.691-6.8-3.373-8.961-4-0.466-0.135-0.895-0.245-1.293-0.331-0.069-0.408-0.104-0.821-0.104-1.235 0-2.81 1.171-5.335 2.848-6.14 1.344-0.646 3.011-0.223 4.819 1.224 0.079 0.062 0.173 0.101 0.273 0.112zM2.667 9.067h8.533v3.2h-8.533v-3.2zM12.267 9.067h5.333v2.742c-0.281 0.067-0.554 0.164-0.814 0.289-2.385 1.146-3.452 4.393-3.452 7.102 0 0.351 0.023 0.701 0.066 1.049-0.376-0.045-0.755-0.056-1.133-0.031v-11.151zM12.8 8l2.133-2.844 2.133 2.844h-4.267zM5.867 1.6h8.533v2.133h-8.533v-2.133zM5.6 4.8h8.267l-2.4 3.2h-8.267l2.4-3.2zM2.667 13.333h8.533v7.115c-0.042 0.016-0.083 0.033-0.123 0.050-0.437 0.191-0.822 0.483-1.123 0.853-0.084-0.465-0.195-1.002-0.341-1.553-0.578-2.189-1.4-3.452-2.442-3.754-1.169-0.339-2.269-0.029-2.801 0.791-0.26 0.401-0.664 1.393 0.212 2.964-0.413-0.078-0.833-0.121-1.253-0.127h-0.020c-0.215-0.001-0.429 0.014-0.642 0.044l-0-6.384zM3.607 28.339c-0.707-0.205-1.168-0.658-1.174-1.154-0.007-0.565 0.613-1.367 2.374-1.923 0.109-0.035 0.204-0.103 0.271-0.196s0.103-0.205 0.101-0.319c-0.001-0.114-0.040-0.225-0.109-0.317s-0.166-0.157-0.276-0.189c-2.413-0.699-3.44-1.542-3.14-2.576 0.178-0.616 0.718-0.922 1.634-0.922 0.623 0 1.42 0.142 2.397 0.425 0.11 0.032 0.227 0.028 0.335-0.012s0.199-0.113 0.261-0.209 0.092-0.209 0.085-0.324c-0.007-0.114-0.051-0.223-0.125-0.311-1.19-1.412-1.286-2.421-0.978-2.895 0.27-0.416 0.902-0.552 1.609-0.347 1.155 0.335 1.985 3.527 2.221 5.749l-0.536 1.85c-1.387 1.751-3.796 4.005-4.951 3.671h-0zM29.316 29.682c-0.075 0.257-1.414 0.929-6.422 0.652-0.841-0.047-1.717-0.117-2.592-0.206l0.521-1.797-1.024-0.297-0.573 1.975c-2.28-0.271-4.442-0.653-5.805-1.047-1.962-0.569-3.055-1.146-3.545-1.87-0.447-0.661-0.455-1.574-0.027-3.052s0.923-2.244 1.654-2.565c0.311-0.136 0.686-0.205 1.143-0.205 0.723 0 1.651 0.171 2.852 0.52 0.161 0.047 0.331 0.1 0.509 0.158l-1.333 4.601 1.024 0.297 1.316-4.542c2.098 0.788 4.878 2.086 7.221 3.393 0.57 0.318 1.078 0.616 1.531 0.895l-0.551 1.902 1.024 0.297 0.464-1.6c2.22 1.482 2.667 2.292 2.61 2.491z"></path>
</symbol>
<symbol id="icon-location" viewBox="0 0 32 32">
<path fill="#1e90ff" style="fill: var(--color1, #1e90ff)" d="M16.061 2.5c-0.346-0.002-0.628 0.276-0.63 0.621s0.275 0.627 0.621 0.629c0.345 0.002 0.627-0.275 0.629-0.62s-0.275-0.627-0.62-0.63z"></path>
<path fill="#1e90ff" style="fill: var(--color1, #1e90ff)" d="M16.033 6.25c-2.413-0.017-4.389 1.93-4.408 4.342s1.93 4.39 4.342 4.408c0.011 0 0.022 0 0.033 0 2.397 0 4.356-1.941 4.374-4.342 0.018-2.412-1.93-4.39-4.342-4.408zM16.001 13.75c-0.008 0-0.016 0-0.024-0-1.723-0.013-3.115-1.425-3.101-3.148 0.013-1.715 1.412-3.102 3.124-3.102 0.008 0 0.016 0 0.024 0 1.723 0.013 3.115 1.425 3.102 3.148-0.013 1.715-1.412 3.102-3.124 3.102z"></path>
<path fill="#1e90ff" style="fill: var(--color1, #1e90ff)" d="M18.727 2.974c-0.325-0.115-0.683 0.055-0.798 0.38s0.055 0.683 0.38 0.798c2.753 0.976 4.588 3.598 4.566 6.524-0.003 0.345 0.275 0.627 0.62 0.63 0.002 0 0.003 0 0.005 0 0.343 0 0.622-0.277 0.625-0.62 0.026-3.459-2.143-6.558-5.398-7.712z"></path>
<path fill="#1e90ff" style="fill: var(--color1, #1e90ff)" d="M19.835 23.528c4.157-5.351 6.755-8.141 6.79-12.823 0.044-5.89-4.736-10.705-10.626-10.705-5.821 0-10.58 4.714-10.624 10.546-0.036 4.808 2.61 7.595 6.796 12.981-4.164 0.622-6.796 2.186-6.796 4.098 0 1.281 1.184 2.431 3.334 3.237 1.957 0.734 4.546 1.138 7.291 1.138s5.333-0.404 7.291-1.138c2.15-0.806 3.334-1.956 3.334-3.237 0-1.911-2.63-3.475-6.79-4.097zM6.625 10.555c0.039-5.146 4.237-9.305 9.374-9.305 5.197 0 9.415 4.249 9.376 9.446-0.033 4.446-2.788 7.186-7.187 12.92-0.785 1.022-1.505 1.989-2.187 2.934-0.68-0.946-1.386-1.895-2.182-2.935-4.58-5.974-7.227-8.507-7.193-13.060zM16 30.75c-5.366 0-9.375-1.65-9.375-3.125 0-1.094 2.397-2.476 6.427-2.955 0.891 1.169 1.672 2.231 2.438 3.315 0.117 0.166 0.307 0.264 0.51 0.264 0 0 0 0 0.001 0 0.203 0 0.393-0.098 0.51-0.264 0.759-1.070 1.561-2.158 2.444-3.315 4.026 0.479 6.421 1.861 6.421 2.954-0 1.475-4.009 3.125-9.375 3.125z"></path>
</symbol>
<symbol id="icon-phone" viewBox="0 0 32 32">
<path fill="#1e90ff" style="fill: var(--color1, #1e90ff)" d="M18.108 19.802v0l-5.914-5.914c-0.502-0.502-0.502-1.318 0-1.819v0l1.61-1.61c0.614-0.614 0.952-1.43 0.952-2.298s-0.338-1.684-0.952-2.298v0l-4.945-4.946c-0.657-0.657-1.566-1.002-2.493-0.946v0c-0.927 0.056-1.788 0.507-2.362 1.237l-1.77 2.255c-3.323 4.233-2.959 10.294 0.846 14.099l11.359 11.359c2.064 2.064 4.791 3.115 7.53 3.115 2.311-0 4.632-0.749 6.568-2.269l2.255-1.77c0.731-0.574 1.182-1.435 1.237-2.362s-0.289-1.836-0.946-2.493l-4.95-4.95c-1.267-1.267-3.329-1.267-4.596 0l-1.61 1.61c-0.502 0.502-1.318 0.502-1.819 0zM27.721 28.727h-0c-3.707 2.91-9.016 2.592-12.348-0.741l-11.359-11.359c-3.333-3.333-3.651-8.641-0.741-12.349l1.77-2.255c0.34-0.434 0.851-0.701 1.402-0.734s1.090 0.172 1.48 0.562l4.946 4.946c0.752 0.752 0.752 1.976 0 2.728l-1.202 1.202-4.45-4.45c-0.258-0.258-0.676-0.258-0.934 0v0c-0.258 0.258-0.258 0.676 0 0.934v0l4.527 4.527c-0.534 0.988-0.385 2.251 0.449 3.085l5.914 5.914c1.017 1.017 2.671 1.017 3.688 0v0l1.61-1.61c0.752-0.752 1.976-0.752 2.728 0l4.95 4.95c0.39 0.39 0.595 0.929 0.562 1.48s-0.301 1.061-0.734 1.402l-1.17 0.918-3.727-3.727c-0.258-0.258-0.676-0.258-0.934 0v0c-0.258 0.258-0.258 0.676 0 0.934l3.614 3.614-0.039 0.030z"></path>
<path fill="#1e90ff" style="fill: var(--color1, #1e90ff)" d="M22.501 22.503v0c0.123-0.123 0.293-0.194 0.467-0.194s0.344 0.071 0.467 0.194c0.123 0.123 0.194 0.293 0.194 0.467s-0.071 0.344-0.194 0.467c0 0 0 0 0 0l-0.025-0.025c-0.116 0.116-0.278 0.183-0.442 0.183s-0.326-0.067-0.442-0.183c-0.116-0.116-0.183-0.277-0.183-0.442s0.067-0.326 0.183-0.442l-0.025-0.025zM22.501 22.503c-0.123 0.123-0.194 0.293-0.194 0.467M22.501 22.503l-0.194 0.467M22.501 23.438c0 0 0 0 0 0v0zM22.501 23.438c-0.123-0.123-0.194-0.293-0.194-0.467M22.501 23.438l-0.194-0.467"></path>
<path fill="#1e90ff" style="fill: var(--color1, #1e90ff)" d="M8.3 16.575l-0-0c-0.123-0.123-0.293-0.194-0.467-0.194s-0.345 0.071-0.468 0.194l-0 0c-0.123 0.124-0.193 0.293-0.193 0.467s0.070 0.344 0.193 0.467v0c0.124 0.124 0.293 0.194 0.468 0.194s0.344-0.070 0.467-0.194c0.123-0.123 0.194-0.292 0.194-0.467s-0.071-0.343-0.193-0.467z"></path>
<path fill="#1e90ff" style="fill: var(--color1, #1e90ff)" d="M6.403 15.614h-0c-0.129 0.129-0.298 0.193-0.467 0.193s-0.338-0.065-0.467-0.194c0 0 0 0 0 0l-0.437-0.437c-1.79-1.79-2.489-4.42-1.824-6.864M6.403 15.614l-2.385-7.765c-0.352-0.096-0.715 0.112-0.811 0.464M6.403 15.614c0.258-0.258 0.258-0.676 0-0.934l-0.437-0.437M6.403 15.614l-0.437-1.372M3.208 8.313v0zM4.448 8.65v0zM4.448 8.65v0zM5.966 14.242c-1.456-1.456-2.024-3.595-1.484-5.582M5.966 14.242l-1.484-5.582M4.482 8.66c0.096-0.352-0.112-0.715-0.464-0.811l0.464 0.811z"></path>
<path fill="#1e90ff" style="fill: var(--color1, #1e90ff)" d="M19.137-0.036c-0.365 0-0.661 0.296-0.661 0.661s0.296 0.661 0.661 0.661c6.384 0 11.577 5.194 11.577 11.577 0 0.365 0.296 0.661 0.661 0.661s0.661-0.296 0.661-0.661c0-7.112-5.786-12.899-12.898-12.899z"></path>
<path fill="#1e90ff" style="fill: var(--color1, #1e90ff)" d="M19.137 4.266c-0.365 0-0.661 0.296-0.661 0.661s0.296 0.661 0.661 0.661c4.012 0 7.276 3.264 7.276 7.276 0 0.365 0.296 0.661 0.661 0.661s0.661-0.296 0.661-0.661c0-4.74-3.857-8.597-8.597-8.597z"></path>
<path fill="#1e90ff" style="fill: var(--color1, #1e90ff)" d="M19.137 8.801c-0.365 0-0.661 0.296-0.661 0.661s0.296 0.661 0.661 0.661c1.511 0 2.741 1.23 2.741 2.741 0 0.365 0.296 0.661 0.661 0.661s0.661-0.296 0.661-0.661c0-2.24-1.822-4.062-4.062-4.062z"></path>
</symbol>
<symbol id="icon-posmail" viewBox="0 0 32 32">
<path fill="#1e90ff" style="fill: var(--color1, #1e90ff)" d="M30.359 5.333h-28.718c-0.903 0-1.641 0.738-1.641 1.641v18.051c0 0.903 0.738 1.641 1.641 1.641h28.718c0.903 0 1.641-0.738 1.641-1.641v-18.051c-0-0.903-0.738-1.641-1.641-1.641zM29.743 6.564l-12.799 9.6c-0.23 0.175-0.583 0.285-0.944 0.283-0.361 0.002-0.714-0.108-0.944-0.283l-12.799-9.6h27.486zM22.906 16.798l6.974 8.615c0.007 0.009 0.016 0.015 0.023 0.023h-27.807c0.007-0.008 0.016-0.014 0.023-0.023l6.974-8.615c0.214-0.264 0.173-0.652-0.092-0.866s-0.652-0.173-0.865 0.091l-6.906 8.531v-17.221l13.087 9.815c0.492 0.366 1.090 0.528 1.682 0.529 0.591-0.001 1.19-0.163 1.682-0.529l13.087-9.815v17.221l-6.906-8.531c-0.214-0.264-0.601-0.305-0.865-0.091s-0.305 0.602-0.091 0.866z"></path>
</symbol>
<symbol id="icon-reading" viewBox="0 0 32 32">
<path fill="none" stroke="#1e90ff" style="stroke: var(--color1, #1e90ff)" stroke-linejoin="round" stroke-linecap="round" stroke-miterlimit="10" stroke-width="1.0667" d="M0.469 28.5v2.406c0 0.345 0.28 0.625 0.625 0.625h13.711c0.274-0.361 0.707-0.594 1.195-0.594s0.921 0.233 1.195 0.594h13.711c0.345 0 0.625-0.28 0.625-0.625v-19.594c0-0.345-0.28-0.625-0.625-0.625h-1.074"></path>
<path fill="none" stroke="#1e90ff" style="stroke: var(--color1, #1e90ff)" stroke-linejoin="round" stroke-linecap="round" stroke-miterlimit="10" stroke-width="1.0667" d="M2.509 10.687h-1.415c-0.345 0-0.625 0.28-0.625 0.625v14.334"></path>
<path fill="none" stroke="#1e90ff" style="stroke: var(--color1, #1e90ff)" stroke-linejoin="round" stroke-linecap="round" stroke-miterlimit="10" stroke-width="1.0667" d="M29.491 13.625v15.964h-26.982v-15.964"></path>
<path fill="none" stroke="#1e90ff" style="stroke: var(--color1, #1e90ff)" stroke-linejoin="round" stroke-linecap="round" stroke-miterlimit="10" stroke-width="1.0667" d="M16 29.385c0 0-5.085-4.207-13.491-1.25v-18.029c0 0 1.215-0.571 3.125-0.988"></path>
<path fill="none" stroke="#1e90ff" style="stroke: var(--color1, #1e90ff)" stroke-linejoin="round" stroke-linecap="round" stroke-miterlimit="10" stroke-width="1.0667" d="M8.759 3.324c-0.938-0.436-1.978-0.796-3.125-1.036v18.972c7.438 1.558 10.366 8.125 10.366 8.125"></path>
<path fill="none" stroke="#1e90ff" style="stroke: var(--color1, #1e90ff)" stroke-linejoin="round" stroke-linecap="round" stroke-miterlimit="10" stroke-width="1.0667" d="M16 10.413c0 0 0.196-8.387-7.241-9.945v18.972c7.438 1.558 7.241 9.945 7.241 9.945v-18.972z"></path>
<path fill="none" stroke="#1e90ff" style="stroke: var(--color1, #1e90ff)" stroke-linejoin="round" stroke-linecap="round" stroke-miterlimit="10" stroke-width="1.0667" d="M16 29.385c0 0 5.084-4.207 13.491-1.25v-18.029c0 0-0.7-0.329-1.874-0.67"></path>
<path fill="none" stroke="#1e90ff" style="stroke: var(--color1, #1e90ff)" stroke-linejoin="round" stroke-linecap="round" stroke-miterlimit="10" stroke-width="1.0667" d="M27.616 14.187v10.823c-7.533 0-11.616 4.375-11.616 4.375v-18.972c0 0 4.083-4.375 11.616-4.375v5.274"></path>
</symbol>
<symbol id="icon-skydive" viewBox="0 0 32 32">
<path fill="#1e90ff" style="fill: var(--color1, #1e90ff)" d="M31 12.98c-0.006-0.13-0.68-12.973-14.49-12.98h-0.020c-13.81 0.006-14.485 12.85-14.49 12.98-0.003 0.073 0.010 0.145 0.039 0.212s0.071 0.127 0.125 0.175l10.646 9.72c-0.322 0.098-0.61 0.281-0.835 0.531s-0.377 0.556-0.44 0.886c-0.063 0.33-0.036 0.671 0.081 0.986s0.316 0.593 0.579 0.803l1.559 1.25 0.25 3.988c0.008 0.127 0.064 0.246 0.156 0.333s0.214 0.136 0.341 0.136h4c0.127 0 0.25-0.048 0.343-0.135s0.149-0.206 0.157-0.333l0.25-3.99 1.557-1.246c0.265-0.209 0.467-0.486 0.585-0.802s0.146-0.658 0.083-0.989-0.217-0.638-0.443-0.888c-0.226-0.25-0.517-0.432-0.84-0.528l10.646-9.72c0.054-0.049 0.097-0.109 0.125-0.176s0.041-0.14 0.038-0.213zM29.907 12.108c-0.75-0.371-1.571-0.578-2.407-0.607-0.859 0.032-1.7 0.249-2.467 0.636-0.016-1.284-0.218-2.558-0.6-3.784-0.018-0.064-0.049-0.123-0.091-0.175s-0.093-0.095-0.152-0.126c-0.059-0.031-0.123-0.051-0.189-0.057s-0.133 0-0.196 0.020c-0.063 0.020-0.122 0.052-0.173 0.095s-0.093 0.095-0.123 0.154c-0.030 0.059-0.049 0.124-0.054 0.19s0.003 0.133 0.024 0.196c0.357 1.15 0.543 2.346 0.553 3.55-2.251-0.928-4.777-0.932-7.031-0.012v-10.886c2.434 1.148 4.432 3.053 5.695 5.429 0.063 0.115 0.168 0.202 0.294 0.242s0.261 0.031 0.379-0.026c0.058-0.030 0.11-0.071 0.153-0.121s0.075-0.108 0.095-0.171c0.020-0.063 0.027-0.128 0.022-0.194s-0.024-0.129-0.054-0.188c-1.107-2.122-2.777-3.899-4.826-5.137 8.93 1.060 10.776 8.358 11.15 10.974zM18.187 20.433c-0.078-0.125-0.17-0.241-0.273-0.347-0.253-0.251-0.568-0.429-0.913-0.515v-6.28c1.088-0.536 2.287-0.807 3.5-0.791 1.116-0.010 2.222 0.217 3.243 0.667l-5.556 7.267zM16 19.571c-0.49 0.127-0.914 0.435-1.186 0.863l-5.557-7.268c1.022-0.449 2.127-0.676 3.244-0.667 1.213-0.016 2.412 0.255 3.5 0.791v6.28zM8.157 13.375l6.343 8.294v1.331h-0.307l-10.847-9.904c0.665-0.356 1.401-0.559 2.154-0.596 0.944 0.068 1.857 0.368 2.658 0.875zM15.5 21.5c0-0.265 0.105-0.52 0.293-0.707s0.442-0.293 0.707-0.293c0.265 0 0.52 0.105 0.707 0.293s0.293 0.442 0.293 0.707v1.5h-2v-1.5zM18.806 23h-0.306v-1.331l6.342-8.294c0.8-0.508 1.713-0.808 2.657-0.875 0.753 0.038 1.488 0.241 2.153 0.597l-10.847 9.903zM14.24 1.134c-1.163 0.715-2.214 1.6-3.117 2.624-0.043 0.050-0.076 0.107-0.097 0.17s-0.029 0.128-0.024 0.194c0.005 0.066 0.022 0.129 0.052 0.188s0.070 0.111 0.12 0.154c0.108 0.067 0.234 0.099 0.361 0.090s0.247-0.058 0.345-0.14c1.157-1.3 2.557-2.361 4.121-3.124v10.897c-1.108-0.463-2.299-0.696-3.5-0.686-1.213-0.011-2.415 0.228-3.532 0.7 0.016-1.722 0.392-3.423 1.104-4.991 0.055-0.121 0.060-0.258 0.014-0.382s-0.14-0.225-0.26-0.281c-0.121-0.055-0.258-0.060-0.382-0.014s-0.225 0.14-0.281 0.26c-0.766 1.679-1.174 3.499-1.197 5.344-0.767-0.387-1.608-0.604-2.466-0.636-0.836 0.030-1.657 0.237-2.408 0.607 0.374-2.615 2.22-9.913 11.147-10.974zM12.817 25.514c-0.099-0.080-0.179-0.181-0.234-0.296s-0.083-0.241-0.083-0.368c-0.005-0.112 0.014-0.224 0.058-0.328s0.109-0.197 0.192-0.272c0.23-0.158 0.501-0.245 0.78-0.25l0.138 2.195-0.851-0.681zM17 31v-2c0-0.133-0.053-0.26-0.146-0.354s-0.221-0.146-0.354-0.146c-0.133 0-0.26 0.053-0.354 0.146s-0.146 0.221-0.146 0.354v2h-1.030l-0.438-7h3.936l-0.438 7h-1.030zM20.5 24.85c0 0.127-0.029 0.253-0.083 0.368s-0.135 0.216-0.234 0.296l-0.85 0.679 0.137-2.194c0.282-0.014 0.56 0.075 0.782 0.25 0.079 0.079 0.142 0.172 0.184 0.275s0.064 0.213 0.064 0.325z"></path>
<path fill="#1e90ff" style="fill: var(--color1, #1e90ff)" d="M10.5 6c0.276 0 0.5-0.224 0.5-0.5s-0.224-0.5-0.5-0.5c-0.276 0-0.5 0.224-0.5 0.5s0.224 0.5 0.5 0.5z"></path>
</symbol>
<symbol id="icon-time" viewBox="0 0 32 32">
<path fill="none" stroke="#1e90ff" style="stroke: var(--color1, #1e90ff)" stroke-linejoin="round" stroke-linecap="round" stroke-miterlimit="10" stroke-width="1.28" d="M27.318 5.578c2.525 2.741 4.068 6.401 4.068 10.422 0 8.497-6.888 15.385-15.386 15.385s-15.386-6.888-15.386-15.385 6.888-15.386 15.386-15.386c0.635 0 1.261 0.038 1.876 0.113"></path>
<path fill="none" stroke="#1e90ff" style="stroke: var(--color1, #1e90ff)" stroke-linejoin="round" stroke-linecap="round" stroke-miterlimit="10" stroke-width="1.28" d="M9.975 6.422c4.371-2.755 10.217-2.229 14.024 1.579 4.418 4.418 4.418 11.58 0 15.998s-11.58 4.418-15.998 0c-3.813-3.813-4.335-9.67-1.566-14.043"></path>
<path fill="none" stroke="#1e90ff" style="stroke: var(--color1, #1e90ff)" stroke-linejoin="round" stroke-linecap="round" stroke-miterlimit="10" stroke-width="1.28" d="M27.208 7.865v-2.375h2.375"></path>
<path fill="none" stroke="#1e90ff" style="stroke: var(--color1, #1e90ff)" stroke-linejoin="round" stroke-linecap="round" stroke-miterlimit="10" stroke-width="1.28" d="M14.472 16c0 0.844 0.684 1.528 1.528 1.528s1.528-0.684 1.528-1.528c0-0.844-0.684-1.528-1.528-1.528s-1.528 0.684-1.528 1.528z"></path>
<path fill="none" stroke="#1e90ff" style="stroke: var(--color1, #1e90ff)" stroke-linejoin="round" stroke-linecap="round" stroke-miterlimit="10" stroke-width="1.28" d="M24.896 16.010h-0.771"></path>
<path fill="none" stroke="#1e90ff" style="stroke: var(--color1, #1e90ff)" stroke-linejoin="round" stroke-linecap="round" stroke-miterlimit="10" stroke-width="1.28" d="M7.104 15.99h0.771"></path>
<path fill="none" stroke="#1e90ff" style="stroke: var(--color1, #1e90ff)" stroke-linejoin="round" stroke-linecap="round" stroke-miterlimit="10" stroke-width="1.28" d="M16.010 7.104v0.771"></path>
<path fill="none" stroke="#1e90ff" style="stroke: var(--color1, #1e90ff)" stroke-linejoin="round" stroke-linecap="round" stroke-miterlimit="10" stroke-width="1.28" d="M15.99 24.896v-0.771"></path>
<path fill="none" stroke="#1e90ff" style="stroke: var(--color1, #1e90ff)" stroke-linejoin="round" stroke-linecap="round" stroke-miterlimit="10" stroke-width="1.28" d="M14.92 14.919l-2.494-2.494"></path>
<path fill="none" stroke="#1e90ff" style="stroke: var(--color1, #1e90ff)" stroke-linejoin="round" stroke-linecap="round" stroke-miterlimit="10" stroke-width="1.28" d="M17.081 14.919l4.65-4.65"></path>
</symbol>
<symbol id="icon-travelling" viewBox="0 0 32 32">
<path fill="none" stroke="#1e90ff" style="stroke: var(--color1, #1e90ff)" stroke-linejoin="round" stroke-linecap="round" stroke-miterlimit="10" stroke-width="0.9796" d="M7.426 24.79c2.21 3.428 6.053 5.702 10.423 5.702 6.852 0 12.405-5.56 12.405-12.418 0-4.652-2.557-8.706-6.341-10.833-1.588-0.892-3.393-1.446-5.317-1.56M5.442 18.043c0 1.659 0.325 3.244 0.915 4.693"></path>
<path fill="none" stroke="#1e90ff" style="stroke: var(--color1, #1e90ff)" stroke-linejoin="round" stroke-linecap="round" stroke-miterlimit="10" stroke-width="0.9796" d="M28.233 24.871c-2.386-2.576-5.788-2.157-6.892-0.32-1.392 2.321-4.916 1.94-5.87 1.154-2.214-1.83-4.96-0.948-4.848 2.455"></path>
<path fill="none" stroke="#1e90ff" style="stroke: var(--color1, #1e90ff)" stroke-linejoin="round" stroke-linecap="round" stroke-miterlimit="10" stroke-width="0.9796" d="M30.224 18.97c-0.283 1.892-3.552 1.711-3.725 0.062-0.159-1.518-1.558-1.556-2.202-1.62-1.585-0.161-2.304-1.295-0.28-3.955 1.686-2.215-4.496-4.465-1.279-6.796"></path>
<path fill="none" stroke="#1e90ff" style="stroke: var(--color1, #1e90ff)" stroke-linejoin="round" stroke-linecap="round" stroke-miterlimit="10" stroke-width="0.9796" d="M9.494 5.002l1.064-1.199c0.352-0.396 0.317-1.010-0.080-1.362l-0.777-0.691c-0.395-0.352-1.007-0.315-1.359 0.081l-1.914 2.155"></path>
<path fill="none" stroke="#1e90ff" style="stroke: var(--color1, #1e90ff)" stroke-linejoin="round" stroke-linecap="round" stroke-miterlimit="10" stroke-width="0.9796" d="M9.179 15.096l1.483 2.985c0.364 0.733 0.096 1.493-0.181 1.805l-0.379 0.426c-0.407 0.46-0.746 0.324-1.072-0.174l-2.364-2.762"></path>
<path fill="none" stroke="#1e90ff" style="stroke: var(--color1, #1e90ff)" stroke-linejoin="round" stroke-linecap="round" stroke-miterlimit="10" stroke-width="0.9796" d="M6.553 12.768l-3.088-1.087c-0.771-0.272-1.491 0.080-1.768 0.391l-0.379 0.428c-0.409 0.458-0.233 0.778 0.298 1.045l2.994 1.957"></path>
<path fill="none" stroke="#1e90ff" style="stroke: var(--color1, #1e90ff)" stroke-linejoin="round" stroke-linecap="round" stroke-miterlimit="10" stroke-width="0.9796" d="M11.582 5.692l-6.498-2.152c-0.994-0.329-1.91 0.102-2.264 0.501l-0.69 0.777c-0.523 0.589-0.298 0.996 0.382 1.338l6.393 3.306"></path>
<path fill="none" stroke="#1e90ff" style="stroke: var(--color1, #1e90ff)" stroke-linejoin="round" stroke-linecap="round" stroke-miterlimit="10" stroke-width="0.9796" d="M16.982 8.020c1.052-0.961 1.582-1.94 1.733-2.821 0.183-1.057 0.226-2.43-0.427-3.004-0.647-0.582-2.006-0.379-3.033-0.074-0.856 0.255-1.764 0.894-2.594 2.054l-8.258 11.618c-0.953 1.587 0.553 3.019 2.023 1.798l10.557-9.571z"></path>
<path fill="none" stroke="#1e90ff" style="stroke: var(--color1, #1e90ff)" stroke-linejoin="round" stroke-linecap="round" stroke-miterlimit="10" stroke-width="0.9796" d="M13.911 14.94l-1.733-2.564M15.604 9.27l2.899 6.207c0.444 0.949 0.124 1.91-0.231 2.309l-0.69 0.776c-0.521 0.589-0.953 0.413-1.372-0.223l-1.223-1.81"></path>
<path fill="none" stroke="#1e90ff" style="stroke: var(--color1, #1e90ff)" stroke-linejoin="round" stroke-linecap="round" stroke-miterlimit="10" stroke-width="0.9796" d="M16.535 11.266l1.066-1.199c0.352-0.398 0.963-0.433 1.359-0.081l0.778 0.691c0.395 0.352 0.432 0.964 0.080 1.362l-1.914 2.155"></path>
<path fill="none" stroke="#1e90ff" style="stroke: var(--color1, #1e90ff)" stroke-linejoin="round" stroke-linecap="round" stroke-miterlimit="10" stroke-width="0.9796" d="M16.823 5.367c-0.080-0.735-0.886-1.451-1.567-1.394"></path>
</symbol>
</defs>
</svg>
