<?xml version="1.0" standalone="no"?>
<!DOCTYPE svg PUBLIC "-//W3C//DTD SVG 20010904//EN"
 "http://www.w3.org/TR/2001/REC-SVG-20010904/DTD/svg10.dtd">
<svg version="1.0" xmlns="http://www.w3.org/2000/svg"
 width="128.000000pt" height="128.000000pt" viewBox="0 0 128.000000 128.000000"
 preserveAspectRatio="xMidYMid meet">

<g transform="translate(0.000000,128.000000) scale(0.100000,-0.100000)"
fill="#000000" stroke="none">
<path d="M0 1193 l0 -88 18 35 c22 45 77 82 117 78 l30 -3 3 -97 3 -98 292 0
292 0 130 130 130 130 -508 0 -507 0 0 -87z"/>
<path d="M1101 1231 c27 -26 49 -57 49 -67 0 -11 -27 -46 -60 -79 l-61 -60 78
-5 78 -5 5 -198 5 -198 30 31 c16 17 35 28 42 26 10 -4 13 55 13 299 l0 305
-114 0 -113 0 48 -49z"/>
<path d="M1002 1217 l-22 -23 43 -42 43 -42 22 23 c29 31 28 37 -11 75 -39 38
-47 39 -75 9z"/>
<path d="M87 1169 c-45 -26 -47 -47 -47 -429 l0 -361 26 20 c15 12 35 21 45
21 17 0 19 8 19 71 0 62 2 70 18 67 14 -3 17 -15 17 -82 l0 -78 -40 -14 c-73
-25 -103 -84 -73 -149 24 -53 40 -55 385 -55 l319 0 39 40 c39 40 65 51 65 28
0 -7 -44 -57 -97 -110 l-98 -98 288 0 287 0 0 44 c0 39 -3 45 -22 48 -13 2
-23 10 -23 18 0 8 10 16 23 18 31 5 31 49 0 54 -34 5 -37 38 -4 38 22 0 26 4
26 30 0 25 -4 30 -25 30 -33 0 -33 28 0 36 34 8 35 51 3 56 -13 2 -23 10 -23
18 0 8 10 16 23 18 21 3 22 8 22 85 l0 82 -170 -170 c-135 -135 -172 -167
-182 -157 -10 10 16 41 125 150 l137 137 0 203 0 202 -82 0 -83 0 -195 -195
c-159 -159 -205 -199 -245 -215 l-50 -19 188 -1 c174 0 188 -1 185 -17 -3 -17
-24 -18 -273 -18 -249 0 -270 1 -273 18 -3 14 4 17 36 17 l40 0 31 89 c27 74
41 97 86 141 46 45 55 51 61 36 5 -12 -5 -29 -32 -57 l-38 -39 42 -43 42 -42
195 195 195 195 -42 42 -42 43 -132 -131 c-101 -101 -136 -130 -150 -125 -15
6 -8 16 41 66 l59 60 -272 0 -272 0 -2 -187 c-3 -159 -5 -188 -18 -188 -13 0
-15 40 -18 288 -2 300 -3 301 -45 276z m1053 -915 l0 -114 -120 0 c-87 0 -120
3 -120 12 0 19 217 231 229 224 7 -5 11 -50 11 -122z"/>
<path d="M1035 240 l-69 -70 67 0 c78 0 79 2 75 84 l-3 57 -70 -71z"/>
<path d="M937 1152 c-16 -17 -14 -21 26 -60 42 -41 44 -42 60 -24 16 17 14 21
-26 60 -42 41 -44 42 -60 24z"/>
<path d="M474 655 c-11 -43 28 -69 66 -45 12 8 10 14 -15 40 -35 37 -43 37
-51 5z"/>
<path d="M0 128 l0 -128 306 0 c219 0 303 3 298 11 -3 6 19 37 51 69 l58 59
-309 3 c-308 3 -309 3 -343 27 -18 13 -39 38 -47 55 -12 28 -13 19 -14 -96z"/>
</g>
</svg>
