<svg width="45" height="45" viewBox="0 0 45 45" fill="none" xmlns="http://www.w3.org/2000/svg">
<g clip-path="url(#clip0_1702_224)">
<path d="M44.9977 24.3073C44.9458 21.8348 44.1421 19.4845 42.6737 17.5103C41.9287 16.5079 41.0282 15.6315 39.9971 14.9055C38.9657 14.1792 37.837 13.6267 36.6423 13.2632C34.2879 12.5464 31.8041 12.5822 29.4598 13.3667C27.0644 14.168 25.0272 15.6864 23.5688 17.7577C23.3964 18.0025 23.2325 18.2548 23.0814 18.5077C21.9436 20.4115 21.3695 22.5908 21.4212 24.8095C21.4816 27.4485 22.4354 30.0177 24.1065 32.0435C24.7746 32.8542 25.5534 33.575 26.4209 34.186C27.2886 34.797 28.2296 35.2869 29.2174 35.6426C30.4968 36.1037 31.8484 36.3348 33.2022 36.3348C34.463 36.3348 35.7258 36.1344 36.9339 35.7329C39.0395 35.0338 40.8976 33.7591 42.3073 32.046C42.495 31.8178 42.6773 31.5782 42.8493 31.3339L42.8493 31.334C44.3077 29.2623 45.0508 26.8327 44.9977 24.3073ZM39.2181 16.0114C39.7549 16.3894 40.2502 16.8144 40.7024 17.2795C39.913 17.2583 39.1318 17.1652 38.5138 17.0118C38.1608 16.4814 37.8099 15.7772 37.5238 15.0413C38.1142 15.3102 38.6813 15.6334 39.2181 16.0114ZM30.2786 14.5276C31.2424 14.2454 32.2292 14.1038 33.2157 14.1038C34.1152 14.1038 35.0146 14.2217 35.8958 14.457C36.2246 15.5727 36.7345 16.7278 37.2782 17.5915L35.806 19.6824C34.229 19.3315 31.9644 19.2906 30.4237 19.7478L29.0837 18.1579C29.6154 17.1378 30.064 15.7764 30.2786 14.5276ZM37.3202 25.7919C36.5219 26.8086 34.6426 28.2924 33.2643 28.8376C31.6392 28.3116 30.1912 27.2917 29.1484 25.939C29.186 24.4554 29.8385 22.3451 30.6472 21.0957C31.9418 20.649 34.2688 20.694 35.6763 21.0413C36.4774 22.2485 37.3035 24.4223 37.3202 25.7919ZM28.7781 15.0934C28.5451 16.033 28.1917 16.9835 27.8038 17.6834C27.0056 17.9533 25.9404 18.1353 24.9318 18.1869C25.9569 16.8498 27.2672 15.7982 28.7781 15.0934ZM24.385 30.1245C23.6107 28.8962 23.0977 27.5095 22.8839 26.0677C23.5964 26.5592 24.271 27.1296 24.7386 27.6482C24.7333 28.3672 24.6015 29.2653 24.385 30.1245ZM22.7718 24.3958C22.7944 22.6985 23.2305 21.038 24.0439 19.5498C24.1483 19.5528 24.2534 19.5552 24.3601 19.5552C25.5953 19.5552 26.9759 19.3582 28.0465 19.0261L29.3674 20.5934C28.5228 22.0092 27.8909 24.0723 27.8048 25.7019L25.5999 26.5881C24.8648 25.8155 23.807 24.9949 22.7718 24.3958ZM27.1997 33.0799C26.5357 32.6124 25.9312 32.0723 25.3975 31.4713C25.7937 30.3079 26.0519 28.9492 26.087 27.8501L28.2507 26.9806C29.3862 28.3696 30.8971 29.4335 32.5876 30.0343L32.4981 32.3643C31.475 32.7678 30.2828 33.4688 29.321 34.2341C28.5758 33.9345 27.8636 33.5475 27.1997 33.0799ZM30.9303 34.7334C31.6662 34.2402 32.4674 33.8133 33.1427 33.5658C33.7886 33.8313 34.5533 34.2743 35.2562 34.7796C33.8266 35.0642 32.348 35.0486 30.9303 34.7334ZM36.8681 34.3216C35.9551 33.5488 34.8258 32.8294 33.8507 32.3976L33.9419 30.0197C35.449 29.3682 37.2586 27.9466 38.2179 26.8276L40.1457 27.5456C40.1981 28.762 40.5242 30.2682 41.0015 31.4906C39.8742 32.7581 38.458 33.7284 36.8681 34.3216ZM40.613 26.2762L38.6646 25.5506C38.5758 23.9459 37.7739 21.8276 36.9121 20.4612L38.3842 18.3704C39.1663 18.5436 40.1105 18.6373 41.0426 18.6373C41.2976 18.6373 41.5514 18.6296 41.8009 18.6153C42.8881 20.188 43.5155 22.01 43.6289 23.9274C42.5256 24.55 41.3946 25.4314 40.613 26.2762ZM41.9854 30.1954C41.6939 29.2278 41.506 28.1635 41.4911 27.3213C42.0197 26.7198 42.7956 26.0667 43.602 25.5307C43.4477 27.191 42.8991 28.7793 41.9854 30.1954Z" fill="#1E90FF"/>
<path d="M22.0378 13.3906C22.1231 13.4262 22.2116 13.4431 22.2986 13.4431C22.5631 13.4431 22.8144 13.287 22.9228 13.0277L27.8221 1.31939C27.9664 0.974774 27.8038 0.578563 27.4593 0.434423C27.1149 0.290282 26.7185 0.452616 26.5743 0.797235L24.4637 5.84075L13.6254 3.20966L14.0693 1.2047C14.15 0.840038 13.9199 0.478895 13.5551 0.398124C13.1907 0.317352 12.8293 0.547626 12.7486 0.912372L9.17736 17.0428C9.02927 17.032 8.87985 17.0691 8.75355 17.1535L3.58664 20.5981C3.547 20.6237 3.50921 20.6536 3.47449 20.6884L2.43932 21.7236C2.43844 21.7244 2.43773 21.7255 2.43677 21.7264L0.198018 23.9649C0.0712793 24.0918 0 24.2638 0 24.4432C0 24.6225 0.0712793 24.7946 0.198018 24.9214L1.07051 25.7939L0.253828 26.6105C-0.0103711 26.8746 -0.0103711 27.3029 0.25374 27.567C0.38584 27.6991 0.558897 27.7651 0.732041 27.7651C0.905098 27.7651 1.07824 27.6991 1.21025 27.567L2.02702 26.7503L4.66945 29.3927L3.85277 30.2094C3.58866 30.4735 3.58866 30.9018 3.85277 31.1658C3.98487 31.2978 4.15802 31.3639 4.33107 31.3639C4.50413 31.3639 4.67728 31.2979 4.80938 31.1658L5.62605 30.3491L8.26849 32.9916L7.45181 33.8082C7.18761 34.0723 7.18761 34.5005 7.45172 34.7646C7.58382 34.8967 7.75687 34.9627 7.93002 34.9627C8.10308 34.9627 8.27622 34.8967 8.40823 34.7646L9.22491 33.9479L11.8673 36.5903L11.0506 37.4069C10.7865 37.671 10.7865 38.0993 11.0507 38.3634C11.1827 38.4955 11.3558 38.5615 11.5289 38.5615C11.7019 38.5615 11.8751 38.4955 12.0072 38.3634L12.8238 37.5467L14.6044 39.3273C14.7272 39.4501 15.0412 39.7585 15.4919 40.1631L14.6493 41.0056C14.3852 41.2697 14.3852 41.698 14.6493 41.962C14.7814 42.0941 14.9546 42.1601 15.1276 42.1601C15.3007 42.1601 15.4738 42.0941 15.6059 41.962L16.5233 41.0446C17.339 41.7079 18.3401 42.4417 19.3965 43.0303L19.0432 43.5711C18.8388 43.8839 18.9267 44.3029 19.2394 44.5073C19.3537 44.5819 19.4818 44.6175 19.6088 44.6175C19.8295 44.6175 20.0459 44.5096 20.1756 44.3109L20.6218 43.628C21.4051 43.9516 22.191 44.1549 22.9294 44.1548C23.3961 44.1547 23.8444 44.0735 24.2604 43.8899C24.3369 43.8561 24.4065 43.8084 24.4656 43.7493L25.9323 42.2828C25.9477 42.2673 25.9625 42.251 25.9764 42.2341C26.0636 42.1281 26.493 41.5447 26.3856 40.4661C26.2151 38.7584 24.8147 36.8057 22.2216 34.6601L21.8927 33.6188C21.7803 33.2627 21.4002 33.0651 21.0441 33.1776C20.6879 33.2901 20.4903 33.6701 20.6028 34.0263L20.9921 35.259C21.0317 35.3847 21.1073 35.4961 21.2096 35.5795C24.2162 38.031 24.9299 39.6615 25.0315 40.5571C23.0218 40.4673 19.9633 38.291 17.802 36.1298L9.31333 27.6411C9.04913 27.377 8.62093 27.377 8.35682 27.6411C8.09271 27.9053 8.09271 28.3335 8.35682 28.5976L16.8455 37.0862C17.3297 37.5705 21.1803 41.3305 24.4499 41.852L23.6069 42.695C22.7624 42.9925 21.4245 42.647 19.8177 41.7128C18.4486 40.9168 16.8573 39.6676 15.5607 38.371L1.63283 24.4432L2.91762 23.1585L6.89625 27.1372C7.02835 27.2693 7.20141 27.3353 7.37455 27.3353C7.54761 27.3353 7.72075 27.2693 7.85285 27.1372C8.11696 26.8731 8.11696 26.4448 7.85285 26.1808L3.87422 22.202L4.38363 21.6926L8.77219 18.7667C9.21146 19.9132 10.1774 21.9826 11.9284 23.7336C13.1033 24.9084 14.5981 25.2823 16.2513 24.8155C16.747 24.6754 17.1845 24.4781 17.5285 24.2936L18.2195 26.481L17.3816 26.6255C17.0135 26.6889 16.7665 27.0387 16.8301 27.407C16.8868 27.7362 17.1727 27.9685 17.4958 27.9685C17.5339 27.9685 17.5727 27.9653 17.6114 27.9586L18.6305 27.7828L18.7363 28.1175L17.934 28.266C17.5667 28.3341 17.324 28.687 17.392 29.0542C17.4523 29.3799 17.7366 29.6076 18.0563 29.6076C18.0971 29.6076 18.1386 29.6038 18.1803 29.5962L19.1466 29.4171L19.2514 29.7489L18.4083 29.905C18.041 29.9731 17.7983 30.3259 17.8662 30.6932C17.9265 31.0189 18.2108 31.2466 18.5305 31.2466C18.5714 31.2466 18.6129 31.2428 18.6545 31.2352L19.6618 31.0486L20.0272 32.205C20.1396 32.5613 20.5199 32.7588 20.8758 32.6463C21.232 32.5337 21.4296 32.1539 21.3171 31.7977L21.0018 30.7995C21.3588 30.7233 21.5926 30.3767 21.5257 30.0156C21.4576 29.6483 21.1048 29.4055 20.7374 29.4737L20.5915 29.5007L20.4868 29.1689L20.5094 29.1648C20.8767 29.0968 21.1193 28.7439 21.0514 28.3766C20.9833 28.0093 20.6305 27.7667 20.2631 27.8347L20.0763 27.8693L19.9758 27.5509L20.1131 27.5272C20.4812 27.4638 20.7281 27.114 20.6646 26.7457C20.6012 26.3776 20.2511 26.1306 19.8831 26.1941L19.5645 26.249L18.6293 23.2881L22.0591 15.0918C22.2034 14.7471 22.0409 14.3509 21.6963 14.2068C21.3514 14.0624 20.9554 14.225 20.8113 14.5696L17.3589 22.82C16.797 23.2075 14.6181 24.5102 12.8852 22.7773C11.5019 21.3941 10.653 19.754 10.2001 18.6817L12.4826 8.37209C12.7066 8.45286 12.9741 8.53943 13.2958 8.63506C15.1189 9.17655 18.1998 9.84672 22.4605 10.6286L21.675 12.5059C21.5308 12.8502 21.6933 13.2464 22.0378 13.3906ZM12.7776 7.03949L13.3331 4.53065L23.9351 7.10453L22.9951 9.35084C15.8497 8.04716 13.5144 7.32962 12.7776 7.03949Z" fill="#1E90FF"/>
</g>
<defs>
<clipPath id="clip0_1702_224">
<rect width="45" height="45" fill="white"/>
</clipPath>
</defs>
</svg>
