<svg width="47" height="45" viewBox="0 0 47 45" fill="none" xmlns="http://www.w3.org/2000/svg">
<path d="M43.2367 18.0669H42.6465V16.29C42.6465 14.0705 40.8409 12.265 38.6214 12.265H37.7182C37.2667 10.718 35.8364 9.58408 34.1451 9.58408C32.0926 9.58408 30.423 11.2536 30.423 13.3061V19.1999H16.5769V13.3061C16.5769 11.2536 14.9073 9.58408 12.855 9.58408C11.1636 9.58408 9.73337 10.718 9.2819 12.265H8.37859C6.15906 12.265 4.35349 14.0705 4.35349 16.29V18.0669H3.76328C2.18438 18.0669 0.9 19.3514 0.9 20.9302V24.0599C0.9 25.6388 2.18439 26.9231 3.76328 26.9231H4.35357V28.71C4.35357 30.9296 6.15915 32.735 8.37868 32.735H9.28198C9.73346 34.2821 11.1637 35.416 12.855 35.416C14.9075 35.416 16.577 33.7465 16.577 31.694V25.8001H28.5179C28.9373 25.8001 29.2771 25.4603 29.2771 25.0409C29.2771 24.6216 28.9373 24.2818 28.5179 24.2818H16.5769V20.7182H30.423V31.6941C30.423 33.7465 32.0926 35.4161 34.1451 35.4161C35.8364 35.4161 37.2667 34.2822 37.7182 32.7351H38.6214C40.8409 32.7351 42.6465 30.9297 42.6465 28.7101V26.9232H43.2367C44.8156 26.9232 46.1 25.6389 46.1 24.06V20.9303C46.1 19.3513 44.8156 18.0669 43.2367 18.0669ZM4.35357 25.4049H3.76328C3.02179 25.4049 2.41836 24.8014 2.41836 24.06V20.9303C2.41836 20.1888 3.02178 19.5854 3.76328 19.5854H4.35357V25.4049ZM15.0586 31.6941C15.0586 32.9091 14.0699 33.8977 12.855 33.8977C11.6399 33.8977 10.6513 32.9091 10.6513 31.6941V18.3941C10.6513 17.9748 10.3114 17.635 9.89216 17.635C9.47289 17.635 9.13298 17.9748 9.13298 18.3941V31.2169H8.37868C6.99654 31.2169 5.87193 30.0923 5.87193 28.7102V16.2899C5.87193 14.9078 6.99654 13.7833 8.37868 13.7833H9.13298V15.4738C9.13298 15.8932 9.47289 16.233 9.89216 16.233C10.3114 16.233 10.6513 15.8932 10.6513 15.4738V13.306C10.6513 12.091 11.64 11.1024 12.855 11.1024C14.07 11.1024 15.0586 12.091 15.0586 13.306V31.6941ZM36.3488 31.6941C36.3488 32.9091 35.3601 33.8977 34.1451 33.8977C32.93 33.8977 31.9413 32.9091 31.9413 31.6941V13.306C31.9413 12.091 32.93 11.1024 34.1451 11.1024C35.3601 11.1024 36.3488 12.091 36.3488 13.306V31.6941ZM41.1282 28.7101C41.1282 30.0922 40.0035 31.2168 38.6214 31.2168H37.8671V13.7833H38.6214C40.0035 13.7833 41.1282 14.9079 41.1282 16.2899V28.7101ZM44.5816 24.06C44.5816 24.8014 43.9782 25.4048 43.2367 25.4048H42.6465V19.5853H43.2367C43.9782 19.5853 44.5816 20.1887 44.5816 20.9302V24.06Z" fill="#1E90FF" stroke="#1E90FF" stroke-width="0.2"/>
</svg>
