<svg width="45" height="45" viewBox="0 0 45 45" fill="none" xmlns="http://www.w3.org/2000/svg">
<g clip-path="url(#clip0_1702_142)">
<path d="M35.5976 14.25C36.2554 14.2486 36.9014 14.0748 37.471 13.7459C38.0407 13.4171 38.5143 12.9446 38.8445 12.3757C38.9105 12.2615 38.9453 12.1319 38.9453 12C38.9453 11.8681 38.9105 11.7385 38.8445 11.6244C38.5154 11.0545 38.0421 10.5812 37.4722 10.2522C36.9022 9.92321 36.2557 9.75 35.5977 9.75C34.9396 9.75 34.2931 9.92321 33.7232 10.2522C33.1532 10.5812 32.6799 11.0545 32.3509 11.6244C32.2848 11.7385 32.25 11.8681 32.25 12C32.25 12.1319 32.2848 12.2615 32.3509 12.3757C32.681 12.9446 33.1546 13.417 33.7242 13.7459C34.2939 14.0748 34.9398 14.2486 35.5976 14.25ZM35.5976 11.25C35.9139 11.2507 36.2264 11.3179 36.5151 11.4471C36.8038 11.5763 37.0621 11.7646 37.2733 12C37.0625 12.236 36.8043 12.4247 36.5156 12.554C36.2268 12.6832 35.914 12.75 35.5977 12.75C35.2813 12.75 34.9685 12.6832 34.6797 12.554C34.391 12.4247 34.1328 12.236 33.922 12C34.1332 11.7647 34.3915 11.5763 34.6802 11.4471C34.9688 11.3179 35.2814 11.2507 35.5976 11.25Z" fill="#1E90FF"/>
<path d="M40.4691 38.51C39.9763 38.1058 39.3944 37.6747 38.7347 37.2239C41.9936 35.2813 44.2504 31.2029 44.2504 27C44.2504 23.1904 42.7493 18.6248 39.3956 17.013C38.0087 16.3464 35.8749 16.0005 33.0728 17.5362C32.9388 16.1969 32.5318 15.0773 32.1487 14.026C31.4249 12.04 30.8532 10.4714 32.1712 7.83544L30.8296 7.16456C29.2227 10.3783 29.9937 12.4938 30.7394 14.5397C31.173 15.7294 31.6148 16.9432 31.6113 18.4723C31.5738 18.4994 31.5375 18.5249 31.5002 18.5527C29.4415 17.0213 27.684 16.4828 26.2502 16.4498V12C26.2493 11.8379 26.1968 11.6802 26.1002 11.55L21.7504 5.75006V1.5C21.7504 1.30109 21.6714 1.11032 21.5307 0.96967C21.3901 0.829018 21.1993 0.75 21.0004 0.75H7.50037C7.30146 0.75 7.1107 0.829018 6.97004 0.96967C6.82939 1.11032 6.75037 1.30109 6.75037 1.5V5.75006L2.40037 11.55C2.30378 11.6802 2.25123 11.8379 2.25037 12V28.2324C1.57861 28.6396 1.08993 29.2904 0.886217 30.049C0.569436 31.142 0.647435 32.7303 2.81822 34.0928C3.32234 34.4022 3.85247 34.6671 4.40259 34.8845C2.1795 36.0931 1.91334 37.5751 1.92131 38.2472C1.93772 39.6207 3.01078 40.8159 4.65506 41.2928C4.89946 41.3625 5.15251 41.3972 5.40665 41.3959C6.75806 41.3959 8.42644 40.4817 10.38 38.6678C10.9673 38.1224 11.505 37.5672 11.9542 37.0767C12.0335 37.7431 12.2708 38.3809 12.6464 38.937C13.5571 40.2857 15.2947 41.2522 18.4566 42.1686C21.4955 43.0493 27.2385 43.8842 32.1122 44.1543C33.2472 44.2171 34.3142 44.248 35.2956 44.248C36.4856 44.2581 37.6753 44.197 38.8581 44.0651C41.1612 43.7809 42.3713 43.1745 42.6661 42.1572C42.9609 41.1399 42.2629 39.9818 40.4691 38.51ZM31.416 20.243C31.3101 20.7348 31.1719 21.219 31.0023 21.6926C30.7 21.6237 30.4151 21.4932 30.1654 21.3095C29.9157 21.1257 29.7064 20.8925 29.5507 20.6244L28.2522 21.3756C28.5815 21.9455 29.055 22.4188 29.6251 22.7478C30.1952 23.0768 30.8419 23.25 31.5001 23.25C32.1583 23.25 32.805 23.0768 33.3751 22.7478C33.9452 22.4188 34.4187 21.9455 34.748 21.3756L33.4495 20.6244C33.2595 20.9516 32.9901 21.2256 32.6663 21.4213C32.874 20.7227 33.0128 20.0054 33.0805 19.2797C35.1934 17.9089 37.1341 17.59 38.7456 18.3646C41.1037 19.4981 42.7504 23.049 42.7504 27C42.7504 30.9133 40.4308 34.8286 37.3005 36.2895C36.5393 35.8147 35.7075 35.3248 34.8161 34.827C30.5535 32.4488 25.2536 30.0833 22.2151 29.2027C21.5604 29.0129 20.957 28.8582 20.3972 28.737C20.3005 28.163 20.2514 27.5821 20.2504 27C20.2504 23.049 21.8971 19.4981 24.2549 18.365C26.1455 17.4563 28.4888 18.0513 31.0318 20.0857C31.1424 20.1734 31.2756 20.228 31.416 20.243ZM3.75037 12.75H15.7504V17.25H3.75037V12.75ZM17.2504 12.75H24.7504V16.6063C24.3553 16.7008 23.9713 16.8372 23.6051 17.013C20.2515 18.6248 18.7504 23.1904 18.7504 27C18.751 27.4934 18.7821 27.9862 18.8436 28.4757C18.315 28.4119 17.7817 28.3972 17.2504 28.4317V12.75ZM18.0004 11.25L21.0004 7.24997L24.0004 11.25H18.0004ZM8.25037 2.25H20.2504V5.25H8.25037V2.25ZM7.87537 6.75H19.5004L16.1254 11.25H4.50037L7.87537 6.75ZM3.75037 18.75H15.7504V28.7557C15.692 28.7783 15.6339 28.8018 15.577 28.8267C14.9625 29.095 14.4209 29.5062 13.9972 30.026C13.8796 29.3716 13.7227 28.6163 13.5183 27.8423C12.705 24.7643 11.5495 22.9883 10.0839 22.5636C8.43956 22.0869 6.89344 22.5233 6.14531 23.6753C5.77969 24.2385 5.21147 25.6335 6.44381 27.8436C5.86259 27.7332 5.27286 27.6736 4.68131 27.6654H4.65319C4.35132 27.6644 4.04976 27.6849 3.75084 27.727L3.75037 18.75ZM5.07225 39.852C4.07737 39.5637 3.42919 38.9267 3.42084 38.2293C3.41147 37.4346 4.28334 36.3067 6.75965 35.5247C6.91313 35.4762 7.04693 35.3796 7.14128 35.2492C7.23564 35.1188 7.28553 34.9615 7.2836 34.8005C7.28166 34.6396 7.228 34.4835 7.13054 34.3554C7.03309 34.2273 6.897 34.134 6.7424 34.0892C3.3495 33.1057 1.9049 31.9208 2.32678 30.4667C2.57765 29.601 3.33619 29.1696 4.62497 29.1696C5.50106 29.1696 6.6224 29.3691 7.99565 29.767C8.15026 29.8118 8.31519 29.8057 8.46605 29.7496C8.61691 29.6934 8.7457 29.5902 8.83339 29.4552C8.92108 29.3202 8.96301 29.1606 8.95298 29C8.94296 28.8393 8.88151 28.6861 8.77772 28.5631C7.10362 26.5781 6.96975 25.1588 7.40278 24.4924C7.78275 23.9075 8.67112 23.7159 9.666 24.0042C11.2897 24.4748 12.4574 28.9646 12.7888 32.089L12.0349 34.6901C10.0841 37.1531 6.69637 40.3224 5.07272 39.852H5.07225ZM41.226 41.7409C41.1212 42.1026 39.2372 43.0472 32.1953 42.6574C31.0133 42.5918 29.7807 42.4929 28.5503 42.3682L29.2827 39.8411L27.8421 39.4236L27.0369 42.2016C23.8307 41.821 20.7897 41.2838 18.8742 40.7287C16.1153 39.9291 14.5779 39.1178 13.8895 38.0984C13.2614 37.1682 13.2503 35.8849 13.852 33.8072C14.4537 31.7295 15.1499 30.6509 16.1781 30.2008C16.6149 30.0096 17.1427 29.913 17.7861 29.913C18.8025 29.913 20.1073 30.1541 21.7968 30.6437C22.0225 30.7093 22.2627 30.7843 22.5132 30.8661L20.6382 37.3358L22.0789 37.7533L23.93 31.3663C26.88 32.4743 30.7904 34.2994 34.0846 36.1373C34.8857 36.5843 35.6002 37.0033 36.2382 37.3955L35.4632 40.0706L36.9038 40.4883L37.5561 38.2383C40.6775 40.3225 41.3066 41.4618 41.226 41.7409Z" fill="#1E90FF"/>
</g>
<defs>
<clipPath id="clip0_1702_142">
<rect width="45" height="45" fill="white"/>
</clipPath>
</defs>
</svg>
