<svg width="45" height="45" viewBox="0 0 45 45" fill="none" xmlns="http://www.w3.org/2000/svg">
<path d="M22.5862 3.51614C22.1001 3.51262 21.7037 3.90374 21.7002 4.38889C21.6967 4.87405 22.0869 5.27044 22.573 5.27395C23.0581 5.27747 23.4545 4.88723 23.458 4.40208C23.4616 3.91692 23.0713 3.52053 22.5862 3.51614Z" fill="#1E90FF"/>
<path d="M22.5462 8.78946C19.1527 8.76538 16.3735 11.5031 16.3478 14.8956C16.3223 18.2879 19.0615 21.0684 22.454 21.094C22.4697 21.0941 22.4853 21.0942 22.5011 21.0942C25.8719 21.0942 28.6269 18.3646 28.6524 14.9879C28.6779 11.5957 25.9388 8.81504 22.5462 8.78946ZM22.5009 19.3364C22.4898 19.3364 22.4782 19.3364 22.4671 19.3363C20.0439 19.318 18.0873 17.3318 18.1056 14.9088C18.1238 12.4966 20.0915 10.547 22.4993 10.547C22.5104 10.547 22.522 10.5471 22.5331 10.5472C24.9563 10.5655 26.9129 12.5516 26.8946 14.9747C26.8764 17.3869 24.9087 19.3364 22.5009 19.3364Z" fill="#1E90FF"/>
<path d="M26.3349 4.18261C25.8777 4.02036 25.3751 4.25986 25.2128 4.71742C25.0507 5.17498 25.2902 5.67728 25.7477 5.83952C29.619 7.21159 32.199 10.8987 32.1681 15.0144C32.1645 15.4997 32.555 15.8962 33.0404 15.8999C33.0426 15.8999 33.0449 15.8999 33.0472 15.8999C33.5293 15.8999 33.9222 15.5107 33.9259 15.0275C33.9625 10.163 30.9119 5.80481 26.3349 4.18261Z" fill="#1E90FF"/>
<path d="M27.8931 33.0858C33.739 25.561 37.3923 21.6371 37.4416 15.0538C37.5035 6.77067 30.7814 0 22.4989 0C14.3132 0 7.62132 6.62943 7.5591 14.8296C7.50882 21.5915 11.23 25.51 17.1163 33.0846C11.2605 33.9596 7.5591 36.1584 7.5591 38.8477C7.5591 40.6492 9.22428 42.2658 12.248 43.3996C15.0001 44.4316 18.6412 45 22.5004 45C26.3596 45 30.0006 44.4316 32.7527 43.3996C35.7764 42.2657 37.4416 40.6491 37.4416 38.8476C37.4416 36.1598 33.7436 33.9615 27.8931 33.0858ZM9.31682 14.8429C9.37167 7.60695 15.2757 1.75782 22.4991 1.75782C29.808 1.75782 35.7384 7.73334 35.6839 15.0407C35.6371 21.2927 31.7627 25.1456 25.5772 33.2089C24.4739 34.6465 23.4607 36.0056 22.5017 37.3351C21.5454 36.0048 20.5524 34.67 19.4326 33.2084C12.9915 24.8074 9.26919 21.2458 9.31682 14.8429ZM22.5004 43.2423C14.9548 43.2423 9.31682 40.9222 9.31682 38.8477C9.31682 37.3093 12.6873 35.3658 18.3543 34.6929C19.607 36.3365 20.7053 37.8298 21.7825 39.3549C21.947 39.5878 22.2144 39.7265 22.4996 39.7266C22.4998 39.7266 22.5001 39.7266 22.5004 39.7266C22.7853 39.7266 23.0526 39.5885 23.2174 39.356C24.2844 37.8508 25.4127 36.3207 26.6547 34.6938C32.3164 35.3675 35.6839 37.3103 35.6839 38.8478C35.6838 40.9222 30.0459 43.2423 22.5004 43.2423Z" fill="#1E90FF"/>
</svg>
