<svg width="45" height="45" viewBox="0 0 45 45" fill="none" xmlns="http://www.w3.org/2000/svg">
<g clip-path="url(#clip0_1705_156)">
<path d="M25.4645 27.8466L25.4291 27.882L25.4645 27.8466L17.1478 19.53C16.4424 18.8247 16.4424 17.677 17.1478 16.9718L17.1125 16.9365L17.1478 16.9718L19.4122 14.7074C20.2755 13.8442 20.7509 12.6962 20.7509 11.4755C20.7509 10.2547 20.2754 9.10675 19.4122 8.24352L19.3865 8.26923L19.4122 8.24352L12.4576 1.28891C11.5338 0.365077 10.2561 -0.119477 8.952 -0.0416338L8.95198 -0.041633C7.64791 0.036567 6.43726 0.670861 5.63056 1.69848L3.14106 4.86975C-1.53154 10.8218 -1.02024 19.3452 4.3305 24.6959L20.3042 40.6695C23.2066 43.5719 27.0412 45.0504 30.8935 45.05C34.1435 45.0498 37.4068 43.9971 40.1302 41.8589L43.3016 39.3694C44.3292 38.5626 44.9634 37.3521 45.0416 36.0479C45.12 34.7439 44.635 33.4662 43.7113 32.5425L36.7509 25.5821C34.9687 23.8 32.0692 23.8 30.2871 25.5821L28.0226 27.8466C27.3173 28.552 26.1696 28.5519 25.4645 27.8466ZM38.9831 40.3977L39.0121 40.4347L38.983 40.3977C33.7698 44.4904 26.3046 44.0425 21.6179 39.3559L5.64425 23.3822C0.957794 18.6957 0.509852 11.2302 4.60241 6.01703L7.09191 2.84576L7.05376 2.81581L7.09192 2.84576C7.57061 2.2359 8.28924 1.85945 9.06316 1.81301C9.8379 1.76684 10.5955 2.05441 11.1438 2.60266L18.0984 9.55727C19.1561 10.6148 19.1561 12.336 18.0984 13.3935L16.4083 15.0836L10.1505 8.82579C9.78775 8.46305 9.19948 8.46306 8.83666 8.82579L8.87201 8.86115L8.83665 8.82579C8.47391 9.18853 8.47392 9.7768 8.83665 10.1396L8.87015 10.1061L8.83665 10.1396L15.2026 16.5056C14.4513 17.8951 14.6609 19.6709 15.8339 20.8437L24.1505 29.1604C25.5802 30.5899 27.9064 30.59 29.3363 29.1604L29.301 29.125L29.3363 29.1604L31.6007 26.8959C32.6584 25.8381 34.3794 25.8381 35.437 26.8959L42.3973 33.8562C42.9457 34.4046 43.2335 35.1629 43.1871 35.9368C43.1406 36.7108 42.7643 37.4293 42.1543 37.9082L40.5094 39.1994L35.2689 33.9589C34.9062 33.5963 34.3179 33.5963 33.9551 33.9589L33.9904 33.9943L33.9551 33.9589C33.5924 34.3217 33.5924 34.9099 33.9551 35.2727L39.0374 40.355L38.9831 40.3977Z" fill="#1E90FF" stroke="#1E90FF" stroke-width="0.1"/>
<path d="M31.6421 31.6455L31.6421 31.6455C31.815 31.4727 32.0545 31.3733 32.2989 31.3733C32.5443 31.3733 32.7829 31.4726 32.9558 31.6455C33.1286 31.8184 33.2279 32.0578 33.2279 32.3023C33.2279 32.5468 33.1286 32.7863 32.9557 32.9591C32.9557 32.9591 32.9557 32.9591 32.9557 32.9591L32.9204 32.9237C32.7568 33.0873 32.5301 33.1813 32.2989 33.1813C32.0677 33.1813 31.8409 33.0873 31.6774 32.9237C31.514 32.7602 31.4199 32.5335 31.4199 32.3023C31.4199 32.0711 31.514 31.8443 31.6774 31.6809L31.6421 31.6455ZM31.6421 31.6455C31.4692 31.8183 31.3699 32.0578 31.3699 32.3023M31.6421 31.6455L31.3699 32.3023M31.6421 32.9591C31.6421 32.9591 31.6421 32.9591 31.6421 32.9591L31.6774 32.9237L31.6421 32.9591ZM31.6421 32.9591C31.4692 32.7862 31.3699 32.5468 31.3699 32.3023M31.6421 32.9591L31.3699 32.3023" fill="#1E90FF" stroke="#1E90FF" stroke-width="0.1"/>
<path d="M11.6717 23.3085L11.6716 23.3084C11.4987 23.1355 11.2593 23.0362 11.0147 23.0362C10.7694 23.0362 10.53 23.1356 10.357 23.3084L10.3569 23.3085C10.1841 23.4822 10.0857 23.7207 10.0857 23.9652C10.0857 24.2096 10.1841 24.449 10.357 24.622L10.357 24.622C10.5308 24.7958 10.7694 24.8942 11.0147 24.8942C11.259 24.8942 11.4986 24.7959 11.6716 24.622C11.8444 24.4491 11.9437 24.2107 11.9437 23.9652C11.9437 23.7206 11.8444 23.4822 11.6717 23.3085Z" fill="#1E90FF" stroke="#1E90FF" stroke-width="0.1"/>
<path d="M9.00481 21.9566L9.00477 21.9566C8.82321 22.1379 8.58552 22.2286 8.3478 22.2286C8.11009 22.2286 7.8722 22.1379 7.69088 21.9565C7.69087 21.9565 7.69087 21.9565 7.69087 21.9565L7.07573 21.3414L7.11109 21.306L7.07573 21.3414C4.55843 18.8239 3.57547 15.1257 4.51058 11.6896M9.00481 21.9566L5.6509 11.0371C5.1555 10.9021 4.64526 11.1945 4.51058 11.6896M9.00481 21.9566C9.36753 21.5937 9.36754 21.0054 9.0048 20.6427L8.38965 20.0275M9.00481 21.9566L8.38965 20.0275M4.51058 11.6896L4.55883 11.7027L4.51058 11.6896ZM6.25552 12.1644L6.25512 12.1643L6.25552 12.1644ZM6.25552 12.1644L6.25619 12.1646L6.25552 12.1644ZM8.38965 20.0275C6.34227 17.9802 5.54281 14.9722 6.30336 12.1775M8.38965 20.0275L6.30336 12.1775M6.30336 12.1775C6.43805 11.6825 6.14602 11.1718 5.65093 11.0371L6.30336 12.1775Z" fill="#1E90FF" stroke="#1E90FF" stroke-width="0.1"/>
<path d="M26.9112 -0.05C26.3982 -0.05 25.9822 0.365869 25.9822 0.878994C25.9822 1.39212 26.3981 1.80799 26.9112 1.80799C35.8884 1.80799 43.1918 9.11146 43.1918 18.0885C43.1918 18.6015 43.6077 19.0175 44.1208 19.0175C44.6339 19.0175 45.0497 18.6016 45.0497 18.0885C45.0497 8.08689 36.9129 -0.05 26.9112 -0.05Z" fill="#1E90FF" stroke="#1E90FF" stroke-width="0.1"/>
<path d="M26.9112 5.99883C26.3982 5.99883 25.9822 6.4147 25.9822 6.92782C25.9822 7.44094 26.3981 7.85682 26.9112 7.85682C32.553 7.85682 37.1429 12.4468 37.1429 18.0885C37.1429 18.6016 37.5588 19.0175 38.0719 19.0175C38.585 19.0175 39.0009 18.6016 39.0009 18.0885C39.0009 11.4222 33.5775 5.99883 26.9112 5.99883Z" fill="#1E90FF" stroke="#1E90FF" stroke-width="0.1"/>
<path d="M26.9112 12.3763C26.3982 12.3763 25.9822 12.7921 25.9822 13.3053C25.9822 13.8184 26.3981 14.2343 26.9112 14.2343C29.0365 14.2343 30.7655 15.9634 30.7655 18.0885C30.7655 18.6016 31.1814 19.0175 31.6945 19.0175C32.2076 19.0175 32.6235 18.6017 32.6235 18.0885C32.6235 14.9388 30.0611 12.3763 26.9112 12.3763Z" fill="#1E90FF" stroke="#1E90FF" stroke-width="0.1"/>
</g>
<defs>
<clipPath id="clip0_1705_156">
<rect width="45" height="45" fill="white"/>
</clipPath>
</defs>
</svg>
