<svg width="45" height="45" viewBox="0 0 45 45" fill="none" xmlns="http://www.w3.org/2000/svg">
<g clip-path="url(#clip0_1705_193)">
<path d="M42.6923 7.5H2.30774C1.03843 7.5 0 8.53843 0 9.80766V35.1923C0 36.4615 1.03843 37.5001 2.30774 37.5001H42.6923C43.9615 37.5001 45.0001 36.4616 45.0001 35.1923V9.80766C45 8.53843 43.9616 7.5 42.6923 7.5ZM41.8263 9.23065L23.8275 22.7308C23.5039 22.9771 23.0071 23.1312 22.4999 23.1289C21.9928 23.1312 21.4961 22.9771 21.1724 22.7308L3.17364 9.23065H41.8263ZM32.2119 23.6216L42.0196 35.7371C42.0295 35.7492 42.0415 35.7584 42.052 35.7694H2.94803C2.9584 35.7579 2.97053 35.7492 2.98037 35.7371L12.7881 23.6216C13.0886 23.2501 13.0316 22.7054 12.6594 22.4042C12.2879 22.1037 11.7432 22.1607 11.4427 22.5323L1.73074 34.5294V10.3124L20.1345 24.1153C20.8263 24.6305 21.6679 24.8573 22.4998 24.8595C23.3306 24.8578 24.1729 24.631 24.8651 24.1153L43.2689 10.3124V34.5293L33.5573 22.5323C33.2567 22.1608 32.7115 22.1036 32.3405 22.4042C31.9684 22.7047 31.9112 23.2501 32.2119 23.6216Z" fill="#1E90FF"/>
</g>
<defs>
<clipPath id="clip0_1705_193">
<rect width="45" height="45" fill="white"/>
</clipPath>
</defs>
</svg>
