<svg width="45" height="45" viewBox="0 0 45 45" fill="none" xmlns="http://www.w3.org/2000/svg">
<g clip-path="url(#clip0_1702_139)">
<mask id="path-1-outside-1_1702_139" maskUnits="userSpaceOnUse" x="1.81152" y="-1" width="42" height="47" fill="black">
<rect fill="white" x="1.81152" y="-1" width="42" height="47"/>
<path d="M43.5933 18.2531C43.5855 18.0703 42.6377 0.00984375 23.2174 0H23.1886C3.76758 0.00914063 2.81976 18.0703 2.81203 18.2531C2.80814 18.3552 2.82678 18.4569 2.86664 18.551C2.9065 18.645 2.9666 18.7291 3.04265 18.7973L18.0129 32.4661C17.5608 32.6036 17.1549 32.8619 16.8389 33.2132C16.5229 33.5645 16.3087 33.9953 16.2196 34.4594C16.1304 34.9234 16.1697 35.4029 16.333 35.8463C16.4964 36.2897 16.7777 36.68 17.1466 36.9752L19.339 38.733L19.6905 44.3405C19.7016 44.5187 19.7801 44.686 19.91 44.8085C20.0399 44.931 20.2116 44.9995 20.3902 45H26.0152C26.1942 45.0004 26.3667 44.9324 26.4973 44.81C26.628 44.6875 26.707 44.5199 26.7183 44.3412L27.0698 38.7309L29.2594 36.9787C29.6317 36.6854 29.9162 36.2953 30.0818 35.8511C30.2474 35.407 30.2877 34.9258 30.1983 34.4603C30.1089 33.9948 29.8932 33.5628 29.5748 33.2116C29.2565 32.8604 28.8477 32.6035 28.3931 32.4689L43.3641 18.8002C43.4401 18.7314 43.5 18.6467 43.5396 18.5522C43.5793 18.4576 43.5976 18.3555 43.5933 18.2531ZM42.0569 17.0262C41.0016 16.5049 39.8477 16.2137 38.6714 16.1719C37.4641 16.2168 36.2807 16.5219 35.2022 17.0662C35.1799 15.261 34.8957 13.4686 34.3584 11.745C34.3325 11.6552 34.2889 11.5715 34.2302 11.4988C34.1715 11.4261 34.0989 11.3658 34.0166 11.3214C33.9343 11.2771 33.844 11.2496 33.751 11.2406C33.658 11.2315 33.5641 11.2411 33.4748 11.2688C33.3856 11.2965 33.3027 11.3416 33.2311 11.4017C33.1595 11.4618 33.1006 11.5355 33.0578 11.6186C33.0151 11.7017 32.9893 11.7925 32.982 11.8857C32.9747 11.9788 32.9861 12.0725 33.0155 12.1612C33.5171 13.7784 33.7794 15.4603 33.7938 17.1534C30.6281 15.8487 27.076 15.8427 23.9058 17.1366V1.82812C27.3287 3.44287 30.1379 6.12086 31.9144 9.46266C32.0033 9.62472 32.1511 9.74649 32.3272 9.80287C32.5032 9.85925 32.6942 9.84594 32.8608 9.7657C32.9429 9.72342 33.0158 9.66537 33.0755 9.59489C33.1351 9.52441 33.1803 9.44286 33.2085 9.35492C33.2366 9.26697 33.2471 9.17434 33.2395 9.08231C33.2318 8.99029 33.2061 8.90068 33.1638 8.81859C31.6067 5.83401 29.2589 3.33498 26.3773 1.59469C38.9344 3.08531 41.5317 13.3481 42.0569 17.0262ZM25.575 28.7339C25.4651 28.5579 25.3361 28.3944 25.1904 28.2466C24.8352 27.8938 24.3914 27.6434 23.9058 27.5217V18.6905C25.4357 17.9367 27.1223 17.5555 28.8277 17.5781C30.3972 17.5643 31.9519 17.8838 33.3888 18.5154L25.575 28.7339ZM22.4995 27.5217C21.8098 27.7001 21.2136 28.1339 20.8317 28.7353L13.0165 18.5154C14.4534 17.8836 16.0081 17.5642 17.5777 17.5781C19.283 17.5556 20.9696 17.9367 22.4995 18.6905V27.5217ZM11.471 18.8086L20.3902 30.472V32.3438H19.9591L4.70484 18.4162C5.64003 17.9161 6.67462 17.6298 7.7339 17.5781C9.06208 17.6735 10.346 18.0963 11.471 18.8086ZM21.7964 30.2344C21.7964 29.8614 21.9446 29.5037 22.2083 29.24C22.472 28.9763 22.8297 28.8281 23.2027 28.8281C23.5756 28.8281 23.9333 28.9763 24.197 29.24C24.4607 29.5037 24.6089 29.8614 24.6089 30.2344V32.3438H21.7964V30.2344ZM26.4462 32.3438H26.0152V30.472L34.9343 18.8079C36.0587 18.0942 37.343 17.6716 38.6714 17.5781C39.7301 17.6311 40.764 17.9175 41.6991 18.417L26.4462 32.3438ZM20.0245 1.59469C18.3886 2.6006 16.9113 3.8442 15.6412 5.28469C15.5807 5.35444 15.5345 5.43543 15.5053 5.52305C15.476 5.61066 15.4643 5.70318 15.4709 5.79531C15.4774 5.88744 15.502 5.97738 15.5433 6.06C15.5846 6.14261 15.6418 6.21628 15.7116 6.2768C15.8631 6.37168 16.0408 6.416 16.2191 6.40336C16.3974 6.39073 16.5671 6.32179 16.7037 6.20648C18.3307 4.37817 20.2996 2.88578 22.4995 1.81336V17.1366C20.9408 16.4862 19.2666 16.158 17.5777 16.1719C15.8724 16.157 14.1822 16.4921 12.6115 17.1562C12.6343 14.734 13.1629 12.3431 14.1633 10.137C14.241 9.96744 14.2483 9.77398 14.1834 9.59914C14.1185 9.42429 13.9869 9.28237 13.8173 9.20461C13.6478 9.12685 13.4544 9.11961 13.2795 9.18448C13.1047 9.24936 12.9628 9.38104 12.885 9.55055C11.8073 11.9114 11.2342 14.4712 11.2024 17.0662C10.1241 16.5219 8.94098 16.2168 7.7339 16.1719C6.55766 16.2139 5.40374 16.5051 4.34836 17.0262C4.87429 13.3488 7.47023 3.08672 20.0245 1.59469ZM18.0234 35.8791C17.8842 35.7666 17.7718 35.6243 17.6947 35.4627C17.6176 35.3011 17.5776 35.1244 17.5777 34.9453C17.5702 34.7874 17.5979 34.6299 17.6587 34.484C17.7195 34.3381 17.8119 34.2075 17.9292 34.1016C18.2522 33.8788 18.6338 33.7565 19.0261 33.75L19.2195 36.8367L18.0234 35.8791ZM23.9058 43.5938V40.7812C23.9058 40.5948 23.8317 40.4159 23.6998 40.2841C23.568 40.1522 23.3891 40.0781 23.2027 40.0781C23.0162 40.0781 22.8373 40.1522 22.7055 40.2841C22.5736 40.4159 22.4995 40.5948 22.4995 40.7812V43.5938H21.0504L20.4345 33.75H25.9702L25.3542 43.5938H23.9058ZM28.8277 34.9453C28.8277 35.1245 28.7876 35.3015 28.7104 35.4632C28.6331 35.6249 28.5206 35.7672 28.3812 35.8798L27.1859 36.8353L27.3792 33.75C27.776 33.7307 28.1663 33.8556 28.4782 34.1016C28.5893 34.2121 28.6774 34.3436 28.7374 34.4885C28.7974 34.6333 28.828 34.7886 28.8277 34.9453Z"/>
</mask>
<path d="M43.5933 18.2531C43.5855 18.0703 42.6377 0.00984375 23.2174 0H23.1886C3.76758 0.00914063 2.81976 18.0703 2.81203 18.2531C2.80814 18.3552 2.82678 18.4569 2.86664 18.551C2.9065 18.645 2.9666 18.7291 3.04265 18.7973L18.0129 32.4661C17.5608 32.6036 17.1549 32.8619 16.8389 33.2132C16.5229 33.5645 16.3087 33.9953 16.2196 34.4594C16.1304 34.9234 16.1697 35.4029 16.333 35.8463C16.4964 36.2897 16.7777 36.68 17.1466 36.9752L19.339 38.733L19.6905 44.3405C19.7016 44.5187 19.7801 44.686 19.91 44.8085C20.0399 44.931 20.2116 44.9995 20.3902 45H26.0152C26.1942 45.0004 26.3667 44.9324 26.4973 44.81C26.628 44.6875 26.707 44.5199 26.7183 44.3412L27.0698 38.7309L29.2594 36.9787C29.6317 36.6854 29.9162 36.2953 30.0818 35.8511C30.2474 35.407 30.2877 34.9258 30.1983 34.4603C30.1089 33.9948 29.8932 33.5628 29.5748 33.2116C29.2565 32.8604 28.8477 32.6035 28.3931 32.4689L43.3641 18.8002C43.4401 18.7314 43.5 18.6467 43.5396 18.5522C43.5793 18.4576 43.5976 18.3555 43.5933 18.2531ZM42.0569 17.0262C41.0016 16.5049 39.8477 16.2137 38.6714 16.1719C37.4641 16.2168 36.2807 16.5219 35.2022 17.0662C35.1799 15.261 34.8957 13.4686 34.3584 11.745C34.3325 11.6552 34.2889 11.5715 34.2302 11.4988C34.1715 11.4261 34.0989 11.3658 34.0166 11.3214C33.9343 11.2771 33.844 11.2496 33.751 11.2406C33.658 11.2315 33.5641 11.2411 33.4748 11.2688C33.3856 11.2965 33.3027 11.3416 33.2311 11.4017C33.1595 11.4618 33.1006 11.5355 33.0578 11.6186C33.0151 11.7017 32.9893 11.7925 32.982 11.8857C32.9747 11.9788 32.9861 12.0725 33.0155 12.1612C33.5171 13.7784 33.7794 15.4603 33.7938 17.1534C30.6281 15.8487 27.076 15.8427 23.9058 17.1366V1.82812C27.3287 3.44287 30.1379 6.12086 31.9144 9.46266C32.0033 9.62472 32.1511 9.74649 32.3272 9.80287C32.5032 9.85925 32.6942 9.84594 32.8608 9.7657C32.9429 9.72342 33.0158 9.66537 33.0755 9.59489C33.1351 9.52441 33.1803 9.44286 33.2085 9.35492C33.2366 9.26697 33.2471 9.17434 33.2395 9.08231C33.2318 8.99029 33.2061 8.90068 33.1638 8.81859C31.6067 5.83401 29.2589 3.33498 26.3773 1.59469C38.9344 3.08531 41.5317 13.3481 42.0569 17.0262ZM25.575 28.7339C25.4651 28.5579 25.3361 28.3944 25.1904 28.2466C24.8352 27.8938 24.3914 27.6434 23.9058 27.5217V18.6905C25.4357 17.9367 27.1223 17.5555 28.8277 17.5781C30.3972 17.5643 31.9519 17.8838 33.3888 18.5154L25.575 28.7339ZM22.4995 27.5217C21.8098 27.7001 21.2136 28.1339 20.8317 28.7353L13.0165 18.5154C14.4534 17.8836 16.0081 17.5642 17.5777 17.5781C19.283 17.5556 20.9696 17.9367 22.4995 18.6905V27.5217ZM11.471 18.8086L20.3902 30.472V32.3438H19.9591L4.70484 18.4162C5.64003 17.9161 6.67462 17.6298 7.7339 17.5781C9.06208 17.6735 10.346 18.0963 11.471 18.8086ZM21.7964 30.2344C21.7964 29.8614 21.9446 29.5037 22.2083 29.24C22.472 28.9763 22.8297 28.8281 23.2027 28.8281C23.5756 28.8281 23.9333 28.9763 24.197 29.24C24.4607 29.5037 24.6089 29.8614 24.6089 30.2344V32.3438H21.7964V30.2344ZM26.4462 32.3438H26.0152V30.472L34.9343 18.8079C36.0587 18.0942 37.343 17.6716 38.6714 17.5781C39.7301 17.6311 40.764 17.9175 41.6991 18.417L26.4462 32.3438ZM20.0245 1.59469C18.3886 2.6006 16.9113 3.8442 15.6412 5.28469C15.5807 5.35444 15.5345 5.43543 15.5053 5.52305C15.476 5.61066 15.4643 5.70318 15.4709 5.79531C15.4774 5.88744 15.502 5.97738 15.5433 6.06C15.5846 6.14261 15.6418 6.21628 15.7116 6.2768C15.8631 6.37168 16.0408 6.416 16.2191 6.40336C16.3974 6.39073 16.5671 6.32179 16.7037 6.20648C18.3307 4.37817 20.2996 2.88578 22.4995 1.81336V17.1366C20.9408 16.4862 19.2666 16.158 17.5777 16.1719C15.8724 16.157 14.1822 16.4921 12.6115 17.1562C12.6343 14.734 13.1629 12.3431 14.1633 10.137C14.241 9.96744 14.2483 9.77398 14.1834 9.59914C14.1185 9.42429 13.9869 9.28237 13.8173 9.20461C13.6478 9.12685 13.4544 9.11961 13.2795 9.18448C13.1047 9.24936 12.9628 9.38104 12.885 9.55055C11.8073 11.9114 11.2342 14.4712 11.2024 17.0662C10.1241 16.5219 8.94098 16.2168 7.7339 16.1719C6.55766 16.2139 5.40374 16.5051 4.34836 17.0262C4.87429 13.3488 7.47023 3.08672 20.0245 1.59469ZM18.0234 35.8791C17.8842 35.7666 17.7718 35.6243 17.6947 35.4627C17.6176 35.3011 17.5776 35.1244 17.5777 34.9453C17.5702 34.7874 17.5979 34.6299 17.6587 34.484C17.7195 34.3381 17.8119 34.2075 17.9292 34.1016C18.2522 33.8788 18.6338 33.7565 19.0261 33.75L19.2195 36.8367L18.0234 35.8791ZM23.9058 43.5938V40.7812C23.9058 40.5948 23.8317 40.4159 23.6998 40.2841C23.568 40.1522 23.3891 40.0781 23.2027 40.0781C23.0162 40.0781 22.8373 40.1522 22.7055 40.2841C22.5736 40.4159 22.4995 40.5948 22.4995 40.7812V43.5938H21.0504L20.4345 33.75H25.9702L25.3542 43.5938H23.9058ZM28.8277 34.9453C28.8277 35.1245 28.7876 35.3015 28.7104 35.4632C28.6331 35.6249 28.5206 35.7672 28.3812 35.8798L27.1859 36.8353L27.3792 33.75C27.776 33.7307 28.1663 33.8556 28.4782 34.1016C28.5893 34.2121 28.6774 34.3436 28.7374 34.4885C28.7974 34.6333 28.828 34.7886 28.8277 34.9453Z" fill="#1E90FF"/>
<path d="M43.5933 18.2531C43.5855 18.0703 42.6377 0.00984375 23.2174 0H23.1886C3.76758 0.00914063 2.81976 18.0703 2.81203 18.2531C2.80814 18.3552 2.82678 18.4569 2.86664 18.551C2.9065 18.645 2.9666 18.7291 3.04265 18.7973L18.0129 32.4661C17.5608 32.6036 17.1549 32.8619 16.8389 33.2132C16.5229 33.5645 16.3087 33.9953 16.2196 34.4594C16.1304 34.9234 16.1697 35.4029 16.333 35.8463C16.4964 36.2897 16.7777 36.68 17.1466 36.9752L19.339 38.733L19.6905 44.3405C19.7016 44.5187 19.7801 44.686 19.91 44.8085C20.0399 44.931 20.2116 44.9995 20.3902 45H26.0152C26.1942 45.0004 26.3667 44.9324 26.4973 44.81C26.628 44.6875 26.707 44.5199 26.7183 44.3412L27.0698 38.7309L29.2594 36.9787C29.6317 36.6854 29.9162 36.2953 30.0818 35.8511C30.2474 35.407 30.2877 34.9258 30.1983 34.4603C30.1089 33.9948 29.8932 33.5628 29.5748 33.2116C29.2565 32.8604 28.8477 32.6035 28.3931 32.4689L43.3641 18.8002C43.4401 18.7314 43.5 18.6467 43.5396 18.5522C43.5793 18.4576 43.5976 18.3555 43.5933 18.2531ZM42.0569 17.0262C41.0016 16.5049 39.8477 16.2137 38.6714 16.1719C37.4641 16.2168 36.2807 16.5219 35.2022 17.0662C35.1799 15.261 34.8957 13.4686 34.3584 11.745C34.3325 11.6552 34.2889 11.5715 34.2302 11.4988C34.1715 11.4261 34.0989 11.3658 34.0166 11.3214C33.9343 11.2771 33.844 11.2496 33.751 11.2406C33.658 11.2315 33.5641 11.2411 33.4748 11.2688C33.3856 11.2965 33.3027 11.3416 33.2311 11.4017C33.1595 11.4618 33.1006 11.5355 33.0578 11.6186C33.0151 11.7017 32.9893 11.7925 32.982 11.8857C32.9747 11.9788 32.9861 12.0725 33.0155 12.1612C33.5171 13.7784 33.7794 15.4603 33.7938 17.1534C30.6281 15.8487 27.076 15.8427 23.9058 17.1366V1.82812C27.3287 3.44287 30.1379 6.12086 31.9144 9.46266C32.0033 9.62472 32.1511 9.74649 32.3272 9.80287C32.5032 9.85925 32.6942 9.84594 32.8608 9.7657C32.9429 9.72342 33.0158 9.66537 33.0755 9.59489C33.1351 9.52441 33.1803 9.44286 33.2085 9.35492C33.2366 9.26697 33.2471 9.17434 33.2395 9.08231C33.2318 8.99029 33.2061 8.90068 33.1638 8.81859C31.6067 5.83401 29.2589 3.33498 26.3773 1.59469C38.9344 3.08531 41.5317 13.3481 42.0569 17.0262ZM25.575 28.7339C25.4651 28.5579 25.3361 28.3944 25.1904 28.2466C24.8352 27.8938 24.3914 27.6434 23.9058 27.5217V18.6905C25.4357 17.9367 27.1223 17.5555 28.8277 17.5781C30.3972 17.5643 31.9519 17.8838 33.3888 18.5154L25.575 28.7339ZM22.4995 27.5217C21.8098 27.7001 21.2136 28.1339 20.8317 28.7353L13.0165 18.5154C14.4534 17.8836 16.0081 17.5642 17.5777 17.5781C19.283 17.5556 20.9696 17.9367 22.4995 18.6905V27.5217ZM11.471 18.8086L20.3902 30.472V32.3438H19.9591L4.70484 18.4162C5.64003 17.9161 6.67462 17.6298 7.7339 17.5781C9.06208 17.6735 10.346 18.0963 11.471 18.8086ZM21.7964 30.2344C21.7964 29.8614 21.9446 29.5037 22.2083 29.24C22.472 28.9763 22.8297 28.8281 23.2027 28.8281C23.5756 28.8281 23.9333 28.9763 24.197 29.24C24.4607 29.5037 24.6089 29.8614 24.6089 30.2344V32.3438H21.7964V30.2344ZM26.4462 32.3438H26.0152V30.472L34.9343 18.8079C36.0587 18.0942 37.343 17.6716 38.6714 17.5781C39.7301 17.6311 40.764 17.9175 41.6991 18.417L26.4462 32.3438ZM20.0245 1.59469C18.3886 2.6006 16.9113 3.8442 15.6412 5.28469C15.5807 5.35444 15.5345 5.43543 15.5053 5.52305C15.476 5.61066 15.4643 5.70318 15.4709 5.79531C15.4774 5.88744 15.502 5.97738 15.5433 6.06C15.5846 6.14261 15.6418 6.21628 15.7116 6.2768C15.8631 6.37168 16.0408 6.416 16.2191 6.40336C16.3974 6.39073 16.5671 6.32179 16.7037 6.20648C18.3307 4.37817 20.2996 2.88578 22.4995 1.81336V17.1366C20.9408 16.4862 19.2666 16.158 17.5777 16.1719C15.8724 16.157 14.1822 16.4921 12.6115 17.1562C12.6343 14.734 13.1629 12.3431 14.1633 10.137C14.241 9.96744 14.2483 9.77398 14.1834 9.59914C14.1185 9.42429 13.9869 9.28237 13.8173 9.20461C13.6478 9.12685 13.4544 9.11961 13.2795 9.18448C13.1047 9.24936 12.9628 9.38104 12.885 9.55055C11.8073 11.9114 11.2342 14.4712 11.2024 17.0662C10.1241 16.5219 8.94098 16.2168 7.7339 16.1719C6.55766 16.2139 5.40374 16.5051 4.34836 17.0262C4.87429 13.3488 7.47023 3.08672 20.0245 1.59469ZM18.0234 35.8791C17.8842 35.7666 17.7718 35.6243 17.6947 35.4627C17.6176 35.3011 17.5776 35.1244 17.5777 34.9453C17.5702 34.7874 17.5979 34.6299 17.6587 34.484C17.7195 34.3381 17.8119 34.2075 17.9292 34.1016C18.2522 33.8788 18.6338 33.7565 19.0261 33.75L19.2195 36.8367L18.0234 35.8791ZM23.9058 43.5938V40.7812C23.9058 40.5948 23.8317 40.4159 23.6998 40.2841C23.568 40.1522 23.3891 40.0781 23.2027 40.0781C23.0162 40.0781 22.8373 40.1522 22.7055 40.2841C22.5736 40.4159 22.4995 40.5948 22.4995 40.7812V43.5938H21.0504L20.4345 33.75H25.9702L25.3542 43.5938H23.9058ZM28.8277 34.9453C28.8277 35.1245 28.7876 35.3015 28.7104 35.4632C28.6331 35.6249 28.5206 35.7672 28.3812 35.8798L27.1859 36.8353L27.3792 33.75C27.776 33.7307 28.1663 33.8556 28.4782 34.1016C28.5893 34.2121 28.6774 34.3436 28.7374 34.4885C28.7974 34.6333 28.828 34.7886 28.8277 34.9453Z" stroke="#1E90FF" stroke-width="0.2" mask="url(#path-1-outside-1_1702_139)"/>
<path d="M14.7656 8.4375C15.154 8.4375 15.4688 8.1227 15.4688 7.73438C15.4688 7.34605 15.154 7.03125 14.7656 7.03125C14.3773 7.03125 14.0625 7.34605 14.0625 7.73438C14.0625 8.1227 14.3773 8.4375 14.7656 8.4375Z" fill="#1E90FF"/>
</g>
<defs>
<clipPath id="clip0_1702_139">
<rect width="45" height="45" fill="white"/>
</clipPath>
</defs>
</svg>
