<svg width="49" height="48" viewBox="0 0 49 48" fill="none" xmlns="http://www.w3.org/2000/svg">
<path d="M11.371 37.4598C14.7553 42.7091 20.6389 46.1914 27.3306 46.1914C37.8224 46.1914 46.3257 37.6781 46.3257 27.1771C46.3257 20.0532 42.4102 13.846 36.6164 10.5897C34.184 9.2234 31.4206 8.3759 28.475 8.20134M8.33301 27.1283C8.33301 29.6681 8.83083 32.095 9.73394 34.3138" stroke="#1E90FF" stroke-width="1.5" stroke-miterlimit="10" stroke-linecap="round" stroke-linejoin="round"/>
<path d="M43.2314 37.583C39.5777 33.6384 34.369 34.2805 32.6781 37.0926C30.5459 40.6469 25.1498 40.0638 23.6899 38.8594C20.3004 36.0576 16.0949 37.4085 16.2668 42.6191" stroke="#1E90FF" stroke-width="1.5" stroke-miterlimit="10" stroke-linecap="round" stroke-linejoin="round"/>
<path d="M46.2804 28.5484C45.8468 31.4451 40.8408 31.1678 40.5765 28.6434C40.3327 26.3192 38.1902 26.2602 37.2049 26.1626C34.7777 25.9161 33.6769 24.18 36.7764 20.1069C39.3577 16.7145 29.8923 13.2706 34.8187 9.70106" stroke="#1E90FF" stroke-width="1.5" stroke-miterlimit="10" stroke-linecap="round" stroke-linejoin="round"/>
<path d="M14.5373 7.15869L16.1666 5.32255C16.7054 4.71638 16.6516 3.77643 16.0434 3.23719L14.8529 2.1791C14.2474 1.63977 13.3108 1.69628 12.772 2.30237L9.8418 5.60242" stroke="#1E90FF" stroke-width="1.5" stroke-miterlimit="10" stroke-linecap="round" stroke-linejoin="round"/>
<path d="M14.0558 22.616L16.3266 27.1872C16.8834 28.3096 16.4729 29.4729 16.0495 29.9506L15.4696 30.6028C14.8461 31.3065 14.3278 31.0985 13.8275 30.3358L10.207 26.1062" stroke="#1E90FF" stroke-width="1.5" stroke-miterlimit="10" stroke-linecap="round" stroke-linejoin="round"/>
<path d="M10.0346 19.0515L5.3058 17.3874C4.12552 16.9714 3.02215 17.5106 2.59881 17.9857L2.01896 18.6406C1.39284 19.3417 1.66228 19.8322 2.47563 20.2405L7.06081 23.2375" stroke="#1E90FF" stroke-width="1.5" stroke-miterlimit="10" stroke-linecap="round" stroke-linejoin="round"/>
<path d="M17.7347 8.21657L7.78436 4.92173C6.26276 4.41842 4.85922 5.07832 4.31792 5.68953L3.26072 6.87861C2.46022 7.78002 2.80396 8.40407 3.84579 8.92795L13.6345 13.9897" stroke="#1E90FF" stroke-width="1.5" stroke-miterlimit="10" stroke-linecap="round" stroke-linejoin="round"/>
<path d="M26.0044 11.7813C27.6159 10.3098 28.4266 8.81004 28.6575 7.46176C28.9373 5.84385 29.004 3.74052 28.0033 2.8623C27.0128 1.97114 24.9319 2.28191 23.3591 2.74928C22.0479 3.13956 20.6572 4.11804 19.3871 5.89515L6.74256 23.6845C5.2826 26.1139 7.58925 28.307 9.83957 26.4376L26.0044 11.7813Z" stroke="#1E90FF" stroke-width="1.5" stroke-miterlimit="10" stroke-linecap="round" stroke-linejoin="round"/>
<path d="M21.3015 22.3773L18.6484 18.4507M23.8931 13.6945L28.332 23.1991C29.0119 24.6527 28.5218 26.1242 27.9779 26.7355L26.9207 27.9244C26.1228 28.8258 25.4607 28.5561 24.8194 27.5829L22.9462 24.8119" stroke="#1E90FF" stroke-width="1.5" stroke-miterlimit="10" stroke-linecap="round" stroke-linejoin="round"/>
<path d="M25.3193 16.7505L26.9513 14.9143C27.4901 14.3056 28.4266 14.2517 29.0321 14.791L30.2227 15.8491C30.8282 16.3884 30.8847 17.3257 30.3458 17.9344L27.4157 21.2344" stroke="#1E90FF" stroke-width="1.5" stroke-miterlimit="10" stroke-linecap="round" stroke-linejoin="round"/>
<path d="M25.7604 7.71851C25.6372 6.59366 24.4031 5.49703 23.3613 5.58436" stroke="#1E90FF" stroke-width="1.5" stroke-miterlimit="10" stroke-linecap="round" stroke-linejoin="round"/>
</svg>
